<?xml version="1.0" encoding="utf-8"?>
<!-- Generator: Adobe Illustrator 27.5.0, SVG Export Plug-In . SVG Version: 6.00 Build 0)  -->
<svg version="1.1" id="Layer_1" xmlns="http://www.w3.org/2000/svg" xmlns:xlink="http://www.w3.org/1999/xlink" x="0px" y="0px"
	 viewBox="0 0 3000 2000" style="enable-background:new 0 0 3000 2000;" xml:space="preserve">
<rect transform="matrix(-1 -1.224647e-16 1.224647e-16 -1 3000 2000)" style="fill:#FFFFFF;" width="3000" height="2000"/>
<g>
	<path style="opacity:0.6;fill:#D2E4FF;" d="M284.417,1643.526c-9.981-24.657-81.956-158.771-89.457-329.228
		c-9.979-212.771,85.092-382.61,254.868-505.071c114.105-83.836,231.452-115.144,363.98-102.903
		c210.456,19.35,245.639,90.113,356.145-26.983c40.706-43.023,85.331-100.759,152.379-156.537
		c154.953-128.776,351.15-171.436,553.926-175.654c117.163-2.436,249.115,10.947,357.207,55.942
		c50.92,21.174,242.773,115.943,299.065,276.249c17.778,50.589,22.046,107.71,4.126,171.113
		c-63.445,224.341,33.148,252.262,154.014,359.174c161.32,142.678,213.262,335.203,83.871,433.898H284.417z"/>
	<path style="fill:#BDD8FF;" d="M657.425,1173.692c0.339-1.021-0.212-2.123-1.232-2.462l-11.49-3.826l-8.738-2.91
		c-0.575-0.19-1.197,0.119-1.389,0.695l-11.007,33.055c-0.191,0.575,0.119,1.197,0.694,1.389l4.506,1.499l0,0l0.005,0.003
		c-8.205,4.039-24.031,7.774-34.45,9.954c-1.385-10.83-2.455-20.781-2.648-28.889c0.027-0.166,0.049-0.323,0.075-0.488
		c0.107-0.65,0.201-1.286,0.3-1.925c0.114-0.755,0.229-1.509,0.333-2.25c0.067-0.478,0.127-0.946,0.188-1.418
		c0.127-0.954,0.246-1.901,0.354-2.833c0.021-0.176,0.039-0.349,0.059-0.524c0.783-6.996,1.056-13.325,0.92-18.987
		c-0.505-21.497-6.719-33.693-11.616-38.779c-0.151-0.163-0.241-0.25-0.241-0.25c-1.397-1.072-2.794-1.741-8.4-2.703
		c-1.092-1.078-12.463-1.793-12.463-1.793h0.001l0,0c0,0-1.196-0.134-1.842-0.177c-0.415-0.039-0.891-0.083-1.428-0.132
		c-1.598-0.841-2.023-7.529-2.005-14.585c0.003-1.059,0.015-2.124,0.035-3.181c0.02-1.056,0.046-2.102,0.078-3.118
		c0.037-1.184,0.081-2.32,0.127-3.396c3.465,0.296,5.767,0.259,5.767,0.259c6.48-0.507,10.525-17.868,11.981-31.898h0.001
		c0,0,7.799-18.781-0.967-29.405c-1.632-1.98-3.151-3.273-4.55-4.079c-0.399-0.4-0.802-0.776-1.206-1.129
		c-6.034-6.691-30.519-31.76-46.59-17.256c-0.414-1.449-5.68-17.794-31.173-12.369c0,0,12.767-1.607,16.265,3.31
		c0,0-10.118-4.634-16.453-0.757c-6.336,3.877-7.376,16.926-6.431,20.897c0.946,3.971,7.943,15.791,12.577,15.791
		c1.754,0,3.631-0.583,5.285-1.308c-0.709,2.101-1.35,4.383-1.881,6.887c-4.921,23.155,10.477,40.755,18.437,36.405
		c5.107-2.789,8.972,6.146,8.972,6.146l0.029-0.038c-0.38,8.5-1.735,15.519-3.429,20.75c-7.477-2.697-18.941-4.482-36.035-2.178
		c-38.549,5.197-42.447,18.192-45.91,41.582c-3.469,23.391-9.096,130.375-6.068,137.743c0.834,2.027,4.17,3.853,9.042,5.257
		c-3.746,13.094-7.95,26.985-11.885,36.762c-1.02,2.19-3.775,7.671-6.626,9.472c-3.593,2.27-8.699,7.755-7.754,12.104
		c0.946,4.35,1.892,11.158,6.431,11.158c4.539,0,15.129-20.047,16.452-23.83c1.324-3.781,2.459-4.538,2.459-4.538l-0.009-0.004
		l0.012,0.003c0,0,11.292-18.737,22.038-38.309c3.719,0.084,7.557-0.014,11.397-0.327c-2.436,10.466-4.234,19.229-4.528,25.115
		c-0.123,2.396,0.007,4.313,0.441,5.685c0.549,1.728,1.593,3.11,3.289,4.113c-0.496,5.125-0.825,10.487-1.009,16.016
		c-1.87,56.604,11.436,130.414,13.425,141.089c0,0.007,0,0.013,0.006,0.025c0.156,0.825-0.085,1.638-0.468,2.384
		c-14.151,28.017-16.198,60.068-13.541,88.507c2.303,24.57,9.074,44.174,14.466,56.486c-0.048-0.055-0.074-0.087-0.074-0.087
		s-1.051,0.868-1.833,2.484c-0.629,1.276-1.09,3.029-0.727,5.191c0.506,3.047-1.123,8.708-2.422,12.538
		c-0.789,2.32-1.452,3.966-1.452,3.966s-0.381,1.912,6.468,2.77h7.96c2.666-0.42,4.634-1.192,7.369-1.55
		c4.153-0.544,6.065,1.158,6.445,1.55c0.051,0.051,0.074,0.079,0.074,0.079h33.814c0.234-0.334,0.334-0.794,0.35-1.321
		c0.571-0.117,1.161-0.225,1.795-0.308c4.153-0.544,6.066,1.158,6.445,1.55c0.051,0.051,0.074,0.079,0.074,0.079h33.814
		c0.85-1.214,0.033-4.028-0.767-6.1c-0.539-1.407-1.713-2.473-3.166-2.893c-3.586-1.038-10.654-1.963-17.128-7.824
		c-3.643-3.291-17.588-12.102-17.588-12.102l-0.074-0.017c-0.018,0-0.039,0.002-0.065,0.006
		c-1.565-12.276-3.176-30.146-2.991-50.861c0.247-27.477,3.646-59.95,14.502-90.955c25.331-72.346,30.682-131.311,31.508-161.717
		c5.642-3.339,9.565-8.094,10.484-14.769c2.503-18.175-0.649-44.271-3.991-69.065c21.017-9.479,39.823-24.521,39.823-24.521
		s2.195-1.043,5.118-2.708l2.316,0.771c1.02,0.34,2.122-0.213,2.461-1.232l1.065-3.199c2.623-1.825,5.142-3.888,6.797-5.976
		c4.039-5.091,2.669-14.022,1.082-17.686L657.425,1173.692z M514.197,1571.737c5.135,20.428,11.667,38.271,16.596,50.377
		c-0.113,0.097-1.074,0.944-1.811,2.465c-0.63,1.276-1.089,3.029-0.726,5.191c0.253,1.526-0.03,3.709-0.538,5.989
		c-1.578-0.911-3.179-2.036-4.744-3.453c-3.643-3.291-17.588-12.102-17.588-12.102l-0.067-0.016
		c1.838-12.223,4.098-28.429,6.006-45.69c0.368-3.313,0.748-6.644,1.141-9.97C513.022,1566.956,513.599,1569.362,514.197,1571.737z"
		/>
	<path style="fill:#BDD8FF;" d="M1071.344,1297.11H218.086c-5.514,0-10.024,4.512-10.024,10.025v114.065
		c0.292,1.485,0.583,2.962,0.884,4.438l0.164,0.82c0.82,3.974,1.649,7.919,2.506,11.819c1.559,7.026,3.172,13.925,4.839,20.678
		c0.31,1.239,0.62,2.479,0.93,3.709c4.465,17.643,9.304,34.319,14.28,49.856c0.829,2.588,1.658,5.148,2.497,7.673
		c2.251,6.816,4.52,13.396,6.779,19.729c1.613,4.511,3.227,8.894,4.83,13.142v0.009c8.594,22.846,16.868,41.828,23.548,56.126
		c9.013,19.292,15.1,30.009,15.1,30.009l176.153,0.574l178.431,0.583l47.131,0.155l163.386,0.528l66.997,0.219l96.114,0.318
		l68.646,0.219c0.064-0.419,0.092-0.839,0.092-1.275v-333.395C1081.369,1301.622,1076.858,1297.11,1071.344,1297.11z"/>
	<g>
		<g>
			<path style="fill:#7C1818;" d="M1004.541,1282.915c0,0-16.54-6.321-25.684-7.863c-9.143-1.543-14.532-48.783-15.512-54.76
				c-0.979-5.979-11.802-15.789-11.802-15.789l6.74,71.898l15.085,18.125h27.367L1004.541,1282.915z"/>
			<path style="fill:#AA413E;" d="M1013.385,1297.068c-0.008,0.017-0.025,0.042-0.033,0.059h-52.207
				c-4.191-6.789-10.15-36.536-14.641-42.446c-0.291-0.391-0.615-0.847-0.963-1.353l-0.449,43.799h-4.771
				c-0.059-6.192-0.539-40.861-3.346-59.769c-2.863-6.449-4.905-12.707-4.017-15.347c1.851-5.495,18.584-17.513,18.584-17.513
				s0,0.017,0.008,0.05c0.365,2.257,12.102,74.385,19.09,76.459c16.898,5.021,33.898,1.909,33.898,1.909
				S1016.821,1289.956,1013.385,1297.068z"/>
		</g>
	</g>
	<g>
		<g>
			<path style="fill:#7C1818;" d="M973.371,1282.915c0,0-16.54-6.321-25.685-7.863c-9.143-1.543-14.531-48.783-15.511-54.76
				c-0.981-5.979-11.802-15.789-11.802-15.789l6.74,71.898l15.085,18.125h27.367L973.371,1282.915z"/>
			<path style="fill:#AA413E;" d="M982.215,1297.068c-0.009,0.017-0.025,0.042-0.033,0.059h-52.208
				c-4.19-6.789-10.15-36.536-14.641-42.446c-0.29-0.391-0.614-0.847-0.963-1.353l-0.448,43.799h-4.772
				c-0.058-6.192-0.539-40.861-3.345-59.769c-2.863-6.449-4.906-12.707-4.018-15.347c1.852-5.495,18.584-17.513,18.584-17.513
				s0,0.017,0.009,0.05c0.364,2.257,12.101,74.385,19.09,76.459c16.898,5.021,33.898,1.909,33.898,1.909
				S985.651,1289.956,982.215,1297.068z"/>
		</g>
	</g>
	<g>
		<path style="fill:#74ACBE;" d="M651.137,1296.986c0,0-21.006,0.802-16.738-15.206c2.184-8.19,11.681-8.535,25.607-8.535
			c13.927,0,216.091,0,216.091,0s11.23,3.878,11.23,11.822s-4.492,9.861-8.086,11.822
			C783.713,1296.853,651.137,1296.986,651.137,1296.986z"/>
		<path style="fill:#5E97A5;" d="M651.137,1275.656c0,0-21.006,0.802-16.738-15.207c2.184-8.189,11.681-8.534,25.607-8.534
			c13.927,0,216.091,0,216.091,0s11.23,3.878,11.23,11.822s-4.492,9.861-8.086,11.822
			C875.648,1277.521,651.137,1275.656,651.137,1275.656z"/>
		<path style="fill:#74ACBE;" d="M652.063,1252.021c0,0-21.932-0.106-17.665-16.114c2.184-8.19,11.681-8.536,25.607-8.536
			c13.927,0,216.091,0,216.091,0s11.23,3.879,11.23,11.823c0,7.943-7.637,10.759-11.23,12.721
			C872.503,1253.876,652.063,1252.021,652.063,1252.021z"/>
	</g>
	<path style="fill:#9FC1F4;" d="M574.692,1308.266c0-6.143-4.229-11.155-9.396-11.155H194.395c0.117,5.7,0.295,11.426,0.565,17.188
		c7.501,170.456,79.476,304.57,89.457,329.228h290.274V1308.266z"/>
	<path style="fill:#9FC1F4;" d="M1079.644,1479.396H234.953c-0.948,0-1.724,0.776-1.724,1.725v7.318
		c0,0.948,0.775,1.724,1.724,1.724h844.691c0.948,0,1.725-0.775,1.725-1.724v-7.318
		C1081.369,1480.172,1080.592,1479.396,1079.644,1479.396z"/>
	<g>
		<path style="fill:#99332B;" d="M627.736,1377.135l-9.132,75.571c-1.716,14.191,9.363,26.689,23.658,26.689h81.49l38.501-102.261
			H627.736z"/>
		<g>
			<path style="fill:#99332B;" d="M656.042,1384.729c0.038-0.478,4.141-47.697,32.441-46.81
				c28.735,0.87,36.146,42.831,36.218,43.256l5.623-0.95c-0.08-0.474-2.026-11.739-7.971-23.289
				c-8.104-15.748-19.758-24.296-33.697-24.718c-14.198-0.427-25.288,8.62-32.202,26.166c-5.017,12.727-6.057,25.364-6.099,25.895
				L656.042,1384.729z"/>
		</g>
		<path style="fill:#C65447;" d="M762.253,1377.135h-124.06l17.84,78.331c3.19,13.998,15.638,23.93,29.995,23.93h75.41
			c16.412,0,28.098-15.947,23.15-31.596L762.253,1377.135z"/>
		<path style="fill:#C4453B;" d="M762.253,1377.135c0,0-0.951,30.658-41.829,32.084c-40.877,1.427-82.231-32.084-82.231-32.084
			H762.253z"/>
		<g>
			<path style="fill:#C4453B;" d="M665.926,1384.729c0.038-0.478,4.14-47.697,32.441-46.81c28.734,0.87,36.145,42.831,36.217,43.256
				l5.623-0.95c-0.079-0.474-2.025-11.739-7.971-23.289c-8.104-15.748-19.757-24.296-33.697-24.718
				c-14.199-0.427-25.289,8.62-32.203,26.166c-5.016,12.727-6.056,25.364-6.098,25.895L665.926,1384.729z"/>
		</g>
	</g>
	<g>
		<path style="fill:#D86713;" d="M697.655,1115.964l-9.961,82.425c-1.87,15.479,10.214,29.111,25.806,29.111h88.88l41.993-111.536
			H697.655z"/>
		<path style="fill:#99332B;" d="M800.854,1093.934c-8.839-17.178-21.549-26.499-36.752-26.96
			c-15.486-0.465-27.583,9.401-35.124,28.539c-5.472,13.881-6.605,27.664-6.651,28.243l6.203,0.49
			c0.041-0.521,4.516-52.021,35.383-51.055c31.342,0.949,39.424,46.716,39.502,47.179l6.134-1.036
			C809.461,1118.817,807.338,1106.53,800.854,1093.934z"/>
		<path style="fill:#EE9849;" d="M868.734,1193.037l-24.361-77.073H709.061l19.459,85.435c3.477,15.269,17.055,26.102,32.714,26.102
			h82.25C861.385,1227.5,874.128,1210.106,868.734,1193.037z"/>
		<path style="fill:#C4453B;" d="M709.061,1115.964c0,0,45.104,36.55,89.69,34.994c44.586-1.555,45.622-34.994,45.622-34.994
			H709.061z"/>
		<path style="fill:#C4453B;" d="M811.634,1093.934c-8.84-17.178-21.55-26.499-36.754-26.96
			c-15.486-0.465-27.583,9.401-35.123,28.539c-5.472,13.881-6.605,27.664-6.651,28.243l6.203,0.49
			c0.041-0.521,4.516-52.021,35.384-51.055c31.341,0.949,39.423,46.716,39.502,47.179l6.133-1.036
			C820.241,1118.817,818.119,1106.53,811.634,1093.934z"/>
	</g>
	<g>
		<path style="fill:#5E97A5;" d="M867.853,1376.972l-9.133,75.57c-1.715,14.192,9.363,26.69,23.66,26.69h81.489l38.5-102.261
			H867.853z"/>
		<g>
			<path style="fill:#5E97A5;" d="M896.161,1384.565c0.037-0.478,4.14-47.697,32.44-46.811
				c28.735,0.871,36.146,42.831,36.218,43.256l5.624-0.949c-0.079-0.473-2.026-11.739-7.972-23.289
				c-8.106-15.748-19.758-24.296-33.697-24.718c-14.198-0.427-25.289,8.619-32.203,26.166c-5.016,12.727-6.057,25.364-6.098,25.895
				L896.161,1384.565z"/>
		</g>
		<path style="fill:#74ACBE;" d="M1002.37,1376.972H878.31l17.841,78.33c3.188,13.999,15.637,23.931,29.994,23.931h75.41
			c16.413,0,28.098-15.946,23.15-31.597L1002.37,1376.972z"/>
		<g>
			<path style="fill:#74ACBE;" d="M906.043,1384.565c0.037-0.478,4.14-47.697,32.441-46.811
				c28.735,0.871,36.145,42.831,36.217,43.256l5.623-0.949c-0.079-0.473-2.026-11.739-7.971-23.289
				c-8.105-15.748-19.758-24.296-33.697-24.718c-14.198-0.427-25.289,8.619-32.203,26.166c-5.016,12.727-6.056,25.364-6.098,25.895
				L906.043,1384.565z"/>
		</g>
	</g>
	<g>
		<path style="fill:#99332B;" d="M425.285,1288.273c2.698-3.403,6.775-4.466,13.943-4.714c-1.333-0.009-2.052-0.014-2.052-0.014
			s-14.923,0.449-11.892-8.516c1.552-4.587,8.299-4.78,18.193-4.78c1.533,0,6.279,0,13.196,0
			c-11.899-0.257-19.498-0.449-19.498-0.449s-14.923,0.449-11.892-8.517c1.552-4.586,8.299-4.779,18.193-4.779
			c2.913,0,17.425,0,36.448,0c-19.567-0.1-33.387-0.19-33.387-0.19s-14.924,0.448-11.893-8.517c1.551-4.587,8.298-4.78,18.192-4.78
			c1.848,0,8.358,0,17.725,0c-19.566-0.1-33.388-0.19-33.388-0.19s-14.923,0.448-11.892-8.516c1.552-4.588,8.299-4.781,18.193-4.781
			c1.357,0,5.277-0.134,11.016-0.344c-10.641-0.061-17.318-0.104-17.318-0.104s-14.923,0.448-11.892-8.517
			c1.552-4.587,8.299-4.78,18.193-4.78c0.207,0,0.478,0,0.802,0c-4.047-0.289-11.911-1.709-9.633-8.447
			c1.348-3.987,6.627-4.654,14.484-4.761c-7.476-0.278-11.955-0.469-11.955-0.469s-14.923,0.448-11.892-8.516
			c1.552-4.588,8.299-4.781,18.193-4.781c9.895,0,153.517,0,153.517,0s7.979,2.173,7.979,6.621c0,4.449-3.191,5.522-5.745,6.622
			c-0.197,0.085-1.631,0.269-4.009,0.502c6.961,0,11.137,0,11.137,0s7.979,2.173,7.979,6.622s-3.191,5.522-5.744,6.621
			c-0.379,0.163-4.208,0.278-10.455,0.357c2.202,0.79,6.837,2.855,6.837,6.249c0,4.449-3.191,5.523-5.745,6.622
			c-0.221,0.096-1.628,0.175-4.008,0.239c1.157,0.163,1.775,0.263,1.775,0.263s7.979,2.172,7.979,6.621
			c0,4.45-3.191,5.523-5.745,6.622c-0.226,0.098-1.696,0.178-4.177,0.244c7.068,0,11.305,0,11.305,0s7.979,2.173,7.979,6.621
			c0,4.45-3.191,5.522-5.744,6.622c-0.393,0.168-4.511,0.287-11.19,0.366c1.612,0.509,7.572,2.65,7.572,6.499
			c0,4.449-3.644,6.025-6.198,7.124c-0.113,0.049-0.535,0.106-1.229,0.17c1.788,0.58,7.428,2.705,7.428,6.451
			c0,4.449-3.191,5.523-5.745,6.621c-0.136,0.06-0.727,0.111-1.717,0.158c1.75,0.564,7.462,2.693,7.462,6.464
			c0,4.449-3.191,5.522-5.745,6.621c-2.553,1.098-170.751,0-170.751,0S422.093,1292.298,425.285,1288.273z"/>
		<g>
			<path style="fill:#C4453B;" d="M333.61,1297.11c0,0-6.489-4.813-3.297-8.837c3.191-4.026,8.298-4.781,18.192-4.781
				c9.895,0,153.517,0,153.517,0s7.979,2.173,7.979,6.622s-3.191,5.522-5.745,6.621C501.704,1297.833,333.61,1297.11,333.61,1297.11
				z"/>
			<path style="fill:#C4453B;" d="M343.281,1284.9c0,0-16-0.905-12.968-9.87c1.552-4.587,8.298-4.78,18.192-4.78
				c9.895,0,153.517,0,153.517,0s7.979,2.172,7.979,6.621s-3.191,5.523-5.745,6.621C501.704,1284.591,343.281,1284.9,343.281,1284.9
				z"/>
			<path style="fill:#E57970;" d="M342.409,1270.25c0,0-15.128,0-12.096-8.966c1.552-4.586,8.298-4.779,18.192-4.779
				c9.895,0,153.517,0,153.517,0s7.979,2.172,7.979,6.621s-3.312,5.843-5.866,6.941
				C501.583,1271.166,342.409,1270.25,342.409,1270.25z"/>
			<path style="fill:#C4453B;" d="M351.747,1256.821c0,0-15.104-0.059-12.072-9.023c1.551-4.587,8.298-4.78,18.192-4.78
				c9.895,0,153.517,0,153.517,0s7.979,2.173,7.979,6.621c0,4.45-3.192,5.522-5.745,6.622
				C511.065,1257.358,351.747,1256.821,351.747,1256.821z"/>
			<path style="fill:#C65447;" d="M342.285,1243.276c0,0-15.004,0-11.972-8.965c1.552-4.588,8.298-4.781,18.192-4.781
				c9.895,0,153.517,0,153.517,0s7.979,2.172,7.979,6.621s-3.383,5.768-5.937,6.866
				C501.512,1244.116,342.285,1243.276,342.285,1243.276z"/>
			<path style="fill:#C4453B;" d="M342.241,1229.611c0,0-14.96-0.081-11.928-9.046c1.552-4.587,8.298-4.78,18.192-4.78
				c9.895,0,153.517,0,153.517,0s7.979,2.172,7.979,6.621s-3.384,5.917-5.938,7.016
				C501.511,1230.521,342.241,1229.611,342.241,1229.611z"/>
			<path style="fill:#C65447;" d="M351.567,1215.854c0,0-14.924,0.448-11.892-8.516c1.551-4.587,8.298-4.781,18.192-4.781
				c9.895,0,153.517,0,153.517,0s7.979,2.173,7.979,6.622s-3.192,5.522-5.745,6.621
				C511.065,1216.898,351.567,1215.854,351.567,1215.854z"/>
			<path style="fill:#E57970;" d="M342.326,1202.558c0,0-15.045-0.001-12.013-8.965c1.552-4.588,8.298-4.781,18.192-4.781
				c9.895,0,153.517,0,153.517,0s7.979,2.173,7.979,6.621c0,4.449-4.13,6.187-6.684,7.286
				C500.765,1203.817,342.326,1202.558,342.326,1202.558z"/>
		</g>
	</g>
	<path style="fill:#D2E4FF;" d="M2532.529,679.339c-56.293-160.304-248.145-255.073-299.064-276.247
		c-108.092-44.995-240.044-58.378-357.207-55.942c-202.776,4.217-398.974,46.878-553.926,175.654
		c-67.047,55.777-111.671,113.512-152.377,156.535H2532.529z"/>
	<g>
		<g>
			<path style="fill:#D2E4FF;" d="M1766.194,1068.172h-235.468V736.129h235.468V1068.172z M1537.455,1061.444h222.012V742.856
				h-222.012V1061.444z"/>
		</g>
		<rect x="1544.436" y="747.998" style="opacity:0.6;fill:#D2E4FF;" width="205.907" height="306.801"/>
	</g>
	<g>
		<g>
			<path style="fill:#D2E4FF;" d="M2463.541,1068.172h-235.467V736.129h235.467V1068.172z M2234.803,1061.444h222.011V742.856
				h-222.011V1061.444z"/>
		</g>
		<rect x="2241.783" y="747.998" style="opacity:0.6;fill:#D2E4FF;" width="205.906" height="306.801"/>
	</g>
	<path style="fill:#9FC1F4;" d="M1089.545,1634.07h-813.77c-2.52,0-4.582,2.062-4.582,4.581c0,2.521,2.062,4.582,4.582,4.582h813.77
		c2.52,0,4.581-2.062,4.581-4.582C1094.126,1636.132,1092.065,1634.07,1089.545,1634.07z"/>
	<g>
		<path style="fill:#9FC1F4;" d="M1507.779,413.325V542.28c0,4.411-3.609,8.011-8.019,8.011h-1.158c-4.402,0-8.011-3.6-8.011-8.011
			V420.378C1496.223,417.981,1501.947,415.63,1507.779,413.325z"/>
		<path style="fill:#FF9843;" d="M1494.709,504.568c-62.647,0-113.433,53.7-113.433,119.944h226.866
			C1608.143,558.269,1557.357,504.568,1494.709,504.568z"/>
		<path style="fill:#FFC48A;" d="M1503.746,506.03c-3.259-0.71-6.584-1.085-9.962-1.085c-40.817,0-73.906,53.531-73.906,119.566
			h19.926C1439.803,563.943,1467.641,513.901,1503.746,506.03z"/>
	</g>
	<g>
		<path style="fill:#9FC1F4;" d="M1901.738,346.873V542.28c0,4.411,3.6,8.011,8.01,8.011h1.158c4.411,0,8.02-3.6,8.02-8.011V346.974
			C1913.192,346.9,1907.471,346.864,1901.738,346.873z"/>
		<path style="fill:#FF9843;" d="M1905.854,504.568c-62.646,0-113.432,53.7-113.432,119.944h226.865
			C2019.287,558.269,1968.502,504.568,1905.854,504.568z"/>
		<path style="fill:#FFC48A;" d="M1914.891,506.03c-3.26-0.71-6.584-1.085-9.962-1.085c-40.818,0-73.905,53.531-73.905,119.566
			h19.924C1850.947,563.943,1878.785,513.901,1914.891,506.03z"/>
	</g>
	<g>
		<path style="fill:#9FC1F4;" d="M2324.33,450.46v91.821c0,4.411-3.607,8.011-8.01,8.011h-1.166c-4.402,0-8.01-3.6-8.01-8.011
			V440.207C2312.729,443.442,2318.471,446.86,2324.33,450.46z"/>
		<path style="fill:#FF9843;" d="M2311.264,504.568c-62.648,0-113.434,53.7-113.434,119.944h226.866
			C2424.696,558.269,2373.91,504.568,2311.264,504.568z"/>
		<path style="fill:#FFC48A;" d="M2320.299,506.03c-3.26-0.71-6.584-1.085-9.963-1.085c-40.816,0-73.904,53.531-73.904,119.566
			h19.925C2256.356,563.943,2284.195,513.901,2320.299,506.03z"/>
	</g>
	<g>
		<path style="fill:#BDD8FF;" d="M606.195,882.849H486.662c0-34.129,25.589-61.94,57.593-63.153v-67.516
			c3.026-1.45,6.042-2.862,9.059-4.23v72.129C583.076,823.688,606.195,850.415,606.195,882.849z"/>
		<path style="fill:#BDD8FF;" d="M822.822,882.849H703.285c0-37.35,25.597-67.777,57.603-69.106V703.727
			c3.029,0.009,6.051,0.041,9.056,0.107v110.323C799.706,818.109,822.822,847.35,822.822,882.849z"/>
		<path style="fill:#BDD8FF;" d="M1036.423,882.849H916.89c0-34.129,25.599-61.94,57.603-63.153v-85.27
			c3.053,0.62,6.068,1.222,9.059,1.804v83.849C1013.313,823.688,1036.423,850.415,1036.423,882.849z"/>
	</g>
	<g>
		<g>
			<g>
				
					<rect x="1081.381" y="1126.133" transform="matrix(-1 -1.224647e-16 1.224647e-16 -1 2903.4634 2266.8301)" style="fill:#E8B491;" width="740.701" height="14.564"/>
				<path style="fill:#CE8D6A;" d="M1068.368,1614.175h15.114v-474.748c0-4.173-3.384-7.557-7.557-7.557l0,0
					c-4.174,0-7.557,3.384-7.557,7.557V1614.175z"/>
				<path style="fill:#CE8D6A;" d="M1814.525,1613.877h15.113v-494.45c0-4.173-3.383-7.557-7.557-7.557l0,0
					c-4.174,0-7.557,3.384-7.557,7.557V1613.877z"/>
				<path style="fill:#CE8D6A;" d="M1021.643,1623.757h108.564c4.174,0,7.557-3.383,7.557-7.557l0,0
					c0-4.174-3.383-7.558-7.557-7.558h-108.564c-4.173,0-7.557,3.384-7.557,7.558l0,0
					C1014.086,1620.374,1017.47,1623.757,1021.643,1623.757z"/>
				<path style="fill:#CE8D6A;" d="M1767.8,1623.757h108.564c4.173,0,7.557-3.383,7.557-7.557l0,0c0-4.174-3.384-7.558-7.557-7.558
					H1767.8c-4.174,0-7.557,3.384-7.557,7.558l0,0C1760.243,1620.374,1763.626,1623.757,1767.8,1623.757z"/>
			</g>
			<g>
				<path style="fill:#CE8D6A;" d="M1032.739,1623.757h8.935c5.387,0,9.754,4.367,9.754,9.755c0,5.387-4.367,9.754-9.754,9.754
					h-8.935c-5.387,0-9.754-4.367-9.754-9.754C1022.984,1628.124,1027.352,1623.757,1032.739,1623.757z"/>
				<path style="fill:#E8B491;" d="M1024.102,1633.512c0,4.77,3.867,8.637,8.637,8.637s8.637-3.867,8.637-8.637
					c0-4.771-3.867-8.638-8.637-8.638S1024.102,1628.741,1024.102,1633.512z"/>
				<path style="fill:#CE8D6A;" d="M1110.176,1623.757h8.935c5.387,0,9.754,4.367,9.754,9.755c0,5.387-4.367,9.754-9.754,9.754
					h-8.935c-5.387,0-9.754-4.367-9.754-9.754C1100.422,1628.124,1104.79,1623.757,1110.176,1623.757z"/>
				<path style="fill:#E8B491;" d="M1101.539,1633.512c0,4.77,3.867,8.637,8.637,8.637s8.637-3.867,8.637-8.637
					c0-4.771-3.867-8.638-8.637-8.638S1101.539,1628.741,1101.539,1633.512z"/>
			</g>
			<g>
				<path style="fill:#CE8D6A;" d="M1778.896,1623.757h8.936c5.387,0,9.754,4.367,9.754,9.755c0,5.387-4.367,9.754-9.754,9.754
					h-8.936c-5.387,0-9.754-4.367-9.754-9.754C1769.142,1628.124,1773.509,1623.757,1778.896,1623.757z"/>
				<path style="fill:#CE8D6A;" d="M1856.333,1623.757h8.936c5.387,0,9.754,4.367,9.754,9.755c0,5.387-4.367,9.754-9.754,9.754
					h-8.936c-5.387,0-9.754-4.367-9.754-9.754C1846.579,1628.124,1850.946,1623.757,1856.333,1623.757z"/>
				<path style="fill:#E8B491;" d="M1847.696,1633.512c0,4.77,3.867,8.637,8.637,8.637c4.771,0,8.638-3.867,8.638-8.637
					c0-4.771-3.867-8.638-8.638-8.638C1851.563,1624.874,1847.696,1628.741,1847.696,1633.512z"/>
			</g>
			<path style="fill:#CE8D6A;" d="M1618.26,1207.551c15.667-10.033,46.579-26.804,79.304-27.823v-28.013
				c0-3.022,1.47-8.827,7.034-9.165c2.712-0.164,4.52-1.643,5.56-2.854c1.548-1.804,2.428-4.262,2.243-6.263
				c-0.551-5.954-4.506-9.653-10.324-9.653c-1.934,0-3.381,0.962-4.467,2.354h-4.997c2.636-5.424,6.516-6.65,9.464-6.65
				c8.11,0,13.843,5.32,14.603,13.555c0.291,3.149-0.958,6.773-3.259,9.456c-2.234,2.604-5.275,4.147-8.563,4.347
				c-2.924,0.178-2.994,4.69-2.996,4.875v27.965c31.31,0.394,61.964,16.344,77.688,25.978c3.148,1.931,4.591,5.618,3.586,9.179
				c-1.007,3.571-4.173,5.971-7.88,5.971h-153.113c-3.227,0-6.003-2.079-6.909-5.175
				C1614.326,1212.538,1615.543,1209.291,1618.26,1207.551z M1621.498,1213.798c0.141,0.479,0.507,0.479,0.644,0.479h153.113
				c1.133,0,1.494-0.849,1.597-1.213c0.126-0.446,0.2-1.279-0.714-1.84c-15.347-9.403-45.394-25.029-75.546-25.029
				c-0.404,0-0.813,0.003-1.217,0.009c-31.738,0.447-62.239,17.011-77.595,26.845
				C1621.664,1213.123,1621.358,1213.318,1621.498,1213.798z"/>
			<path style="fill:#CE8D6A;" d="M1234.646,1205.813c15.667-10.033,46.579-26.804,79.303-27.823v-28.013
				c0-3.022,1.471-8.827,7.034-9.164c2.712-0.165,4.52-1.644,5.56-2.854c1.547-1.805,2.427-4.263,2.243-6.264
				c-0.55-5.954-4.505-9.652-10.324-9.652c-2.666,0-4.41,1.825-5.551,4.091h-4.655c2.602-6.907,6.967-8.389,10.206-8.389
				c8.111,0,13.843,5.32,14.603,13.555c0.291,3.149-0.958,6.773-3.259,9.456c-2.234,2.604-5.275,4.147-8.563,4.347
				c-2.924,0.178-2.994,4.69-2.996,4.875v27.965c31.31,0.394,61.964,16.344,77.687,25.978c3.149,1.931,4.591,5.618,3.587,9.179
				c-1.007,3.571-4.173,5.97-7.88,5.97h-153.113c-3.227,0-6.003-2.078-6.91-5.174
				C1230.713,1210.8,1231.93,1207.553,1234.646,1205.813z M1237.884,1212.06c0.141,0.479,0.507,0.479,0.644,0.479h153.113
				c1.133,0,1.495-0.849,1.597-1.213c0.126-0.446,0.201-1.279-0.714-1.84c-15.346-9.403-45.393-25.029-75.545-25.029
				c-0.404,0-0.812,0.003-1.217,0.009c-31.738,0.447-62.24,17.011-77.595,26.845
				C1238.05,1211.385,1237.745,1211.58,1237.884,1212.06z"/>
			<path style="fill:#CE8D6A;" d="M1185.505,1205.813c15.667-10.033,46.58-26.804,79.304-27.823v-28.013
				c0-3.022,1.47-8.827,7.033-9.164c2.713-0.165,4.521-1.644,5.561-2.854c1.547-1.805,2.427-4.263,2.243-6.264
				c-0.55-5.954-4.506-9.652-10.324-9.652c-2.666,0-4.41,1.825-5.551,4.091h-4.655c2.602-6.907,6.967-8.389,10.206-8.389
				c8.111,0,13.843,5.32,14.603,13.555c0.292,3.149-0.957,6.773-3.259,9.456c-2.234,2.604-5.275,4.147-8.563,4.347
				c-2.924,0.178-2.995,4.69-2.996,4.875v27.965c31.31,0.394,61.964,16.344,77.688,25.978c3.148,1.931,4.591,5.618,3.586,9.179
				c-1.006,3.571-4.173,5.97-7.88,5.97h-153.113c-3.226,0-6.003-2.078-6.91-5.174
				C1181.572,1210.8,1182.789,1207.553,1185.505,1205.813z M1188.743,1212.06c0.141,0.479,0.507,0.479,0.644,0.479H1342.5
				c1.133,0,1.495-0.849,1.597-1.213c0.125-0.446,0.2-1.279-0.714-1.84c-15.346-9.403-45.393-25.029-75.545-25.029
				c-0.404,0-0.812,0.003-1.217,0.009c-31.738,0.447-62.239,17.011-77.595,26.845
				C1188.91,1211.385,1188.604,1211.58,1188.743,1212.06z"/>
			<path style="fill:#80BDCC;" d="M1368.631,1189.301c0,0-23.852,21.273-58.234,19.983c-34.381-1.288-50.712-18.479-50.712-18.479
				s-27.076,13.752-32.662,21.488c-5.588,7.735-8.166,86.813-8.166,86.813s13.322,5.158,27.075,4.729l5.587-16.762l-16.932,281.135
				c0,0,20.943,0.859,33.55-6.37c12.148-6.966,30.448,2.312,46.779,4.508c16.331,2.197,25.708-10.237,41.753-5.08
				c25.022,8.043,44.409,3.438,44.409,3.438l-25.765-278.438l6.981,16.287c0,0,23.941-0.007,31.677-8.173
				c0,0-9.168-84.091-14.326-89.248C1394.488,1199.973,1368.631,1189.301,1368.631,1189.301z"/>
			<path style="fill:#233862;" d="M1319.49,1188.705c0,0-23.852,21.273-58.234,19.983c-34.381-1.288-50.712-18.479-50.712-18.479
				s-27.076,13.752-32.662,21.488c-5.587,7.735-8.166,86.813-8.166,86.813s13.322,5.158,27.075,4.729l5.587-16.762l-17.854,320.848
				c0,0,21.865,2.844,34.472-4.386c12.148-6.966,30.448,2.312,46.779,4.508s25.708-4.281,41.753,0.876
				c25.022,8.043,44.409,3.439,44.409,3.439l-25.764-326.093l6.981,16.287c0,0,23.941-0.007,31.676-8.173
				c0,0-9.168-84.091-14.325-89.248C1345.347,1199.377,1319.49,1188.705,1319.49,1188.705z"/>
			<path style="fill:#A8D29F;" d="M1752.244,1191.039c0,0-23.852,21.273-58.234,19.983c-34.38-1.288-50.711-18.479-50.711-18.479
				s-27.076,13.752-32.663,21.487c-5.587,7.736-8.165,86.813-8.165,86.813s13.322,5.158,27.075,4.729l-1.244-15.742l-10.102,280.115
				c0,0,20.943,0.859,33.551-6.37c12.148-6.966,30.447,2.312,46.778,4.508c16.331,2.197,25.709-10.237,41.754-5.08
				c25.021,8.043,44.408,3.438,44.408,3.438l-25.764-278.438l6.98,16.287c0,0,23.941-0.007,31.677-8.173
				c0,0-9.168-84.091-14.326-89.248C1778.102,1201.711,1752.244,1191.039,1752.244,1191.039z"/>
			<path style="fill:#CE8D6A;" d="M1502.763,1207.55c6.937-4.442,16.864-10.211,28.614-15.343
				c5.346-2.338,11.062-4.539,17.053-6.429c10.581-3.344,21.987-5.708,33.634-6.06h0.001v-28.004c0-3.022,1.47-8.827,7.033-9.165
				c2.713-0.164,4.521-1.643,5.561-2.854c1.547-1.804,2.428-4.262,2.242-6.263c-0.55-5.954-4.506-9.653-10.323-9.653
				c-1.934,0-3.382,0.962-4.468,2.354h-4.997c2.636-5.424,6.516-6.65,9.465-6.65c8.11,0,13.843,5.32,14.603,13.555
				c0.291,3.149-0.958,6.773-3.26,9.456c-2.233,2.604-5.275,4.147-8.563,4.347c-2.924,0.178-2.994,4.69-2.996,4.875v27.961
				c12.928,0.164,25.743,2.982,37.441,6.91c5.424,1.823,10.606,3.877,15.454,6.025c10.005,4.435,18.565,9.24,24.789,13.048
				c3.154,1.925,4.59,5.612,3.593,9.18c-1.015,3.567-4.178,5.966-7.881,5.966h-153.119c-3.223,0-5.999-2.08-6.91-5.175
				C1498.826,1212.535,1500.047,1209.287,1502.763,1207.55z M1505.994,1213.799c0.146,0.481,0.508,0.481,0.645,0.481h153.119
				c1.134,0,1.495-0.851,1.598-1.221c0.121-0.438,0.198-1.272-0.723-1.839c-6.042-3.705-14.379-8.372-24.101-12.67
				c-4.805-2.132-9.954-4.169-15.325-5.948c-11.347-3.765-23.724-6.403-36.118-6.403c-0.403,0-0.809,0-1.211,0.009
				c-11.484,0.163-22.821,2.432-33.325,5.733c-6.593,2.08-12.858,4.556-18.644,7.168c-10.451,4.728-19.313,9.902-25.63,13.941
				C1506.166,1213.119,1505.857,1213.318,1505.994,1213.799z"/>
			<path style="fill:#CE8D6A;" d="M1416.685,1206.044c6.223-3.808,14.784-8.613,24.789-13.048c4.848-2.148,10.03-4.202,15.455-6.025
				c11.698-3.928,24.513-6.746,37.441-6.91V1152.1c-0.002-0.184-0.072-4.697-2.996-4.875c-3.287-0.199-6.329-1.743-8.563-4.347
				c-2.302-2.683-3.551-6.307-3.26-9.456c0.76-8.234,6.493-13.555,14.603-13.555c2.879,0,6.649,1.162,9.278,6.266h-5.127
				c-1.046-1.182-2.4-1.969-4.151-1.969c-5.818,0-9.773,3.699-10.324,9.653c-0.185,2.001,0.697,4.459,2.243,6.263
				c1.04,1.212,2.848,2.69,5.561,2.855c5.563,0.337,7.033,6.142,7.033,9.164v28.004h0.001c11.646,0.352,23.053,2.716,33.634,6.06
				c5.991,1.89,11.706,4.091,17.053,6.429c11.75,5.133,21.678,10.9,28.614,15.344c2.716,1.736,3.937,4.984,3.034,8.079
				c-0.911,3.095-3.688,5.175-6.911,5.175h-153.118c-3.704,0-6.867-2.398-7.881-5.966
				C1412.095,1211.656,1413.53,1207.97,1416.685,1206.044z M1419.375,1213.444c0.103,0.37,0.464,1.221,1.599,1.221h153.118
				c0.138,0,0.499,0,0.646-0.481c0.137-0.48-0.172-0.68-0.285-0.748c-6.316-4.039-15.179-9.214-25.63-13.941
				c-5.785-2.612-12.051-5.088-18.644-7.168c-10.504-3.301-21.841-5.57-33.325-5.733c-0.403-0.009-0.807-0.009-1.211-0.009
				c-12.395,0-24.771,2.639-36.118,6.403c-5.372,1.779-10.521,3.816-15.325,5.948c-9.722,4.298-18.059,8.965-24.101,12.67
				C1419.177,1212.172,1419.254,1213.007,1419.375,1213.444z"/>
			<path style="fill:#FC7972;" d="M1675.129,1510.459c0,0-10.167,10.992-25.64,5.835c-15.472-5.157-31.611-0.063-34.945,2.013
				c-18.318,11.408-38.346,12.588-46.702-2.005c-5.574-9.736-23.207,10.313-59.756,2.753c0,0,30.204-184.425,31.063-206.291
				c0.86-21.859-17.878-47.701-5.845-91.108c0,0,0.053-0.301,0.13-0.851c0.162-1.204,0.455-3.594,0.645-6.524
				c0.318-4.719,0.361-10.838-0.843-15.729c-0.576-2.372-1.443-4.453-2.725-5.939c4.848-2.148,10.031-4.202,15.455-6.025
				c0.67,1.591,1.547,3.645,2.595,6.018c2.631,5.938,6.369,13.88,10.702,21.677c1.22,2.2,2.492,4.392,3.808,6.524
				c6.833,11.147,14.655,20.629,21.807,21.479c0,0,9.403-1.264,21.281-21.479c1.169-1.986,2.355-4.152,3.567-6.524
				c3.086-6.051,6.283-13.399,9.489-22.339c0.705-1.977,1.418-4.031,2.123-6.163c5.991,1.89,11.707,4.091,17.053,6.429
				c0.241,0.354,0.456,0.715,0.637,1.084c0,0-0.584,2.251-1.169,5.818c-0.637,3.894-1.271,9.352-1.152,15.171
				c0.043,2.149,0.198,4.341,0.481,6.524c0.034,0.283,0.077,0.566,0.12,0.851c0,0,5.612,10.877,3.893,30.647
				c-1.719,19.77-9.753,39.946-9.181,60.44C1632.791,1340.279,1674.27,1476.938,1675.129,1510.459z M1536.838,1223.906
				c-1.393-0.876-2.416-1.529-2.991-1.898C1534.422,1222.395,1535.445,1223.056,1536.838,1223.906z"/>
			<path style="fill:#4D8693;" d="M1586.09,1481.061c0,0-10.166,10.992-25.639,5.835c-15.472-5.157-31.611-0.063-34.945,2.013
				c-18.318,11.408-38.346,12.588-46.702-2.006c-5.574-9.736-23.207,10.314-59.756,2.754c0,0,37.131-154.662,37.99-176.528
				c0.86-21.858-24.804-47.681-12.771-91.088c0,0,0.052-0.301,0.129-0.851c0.163-1.204,0.456-3.594,0.645-6.524
				c0.317-4.719,0.361-10.838-0.843-15.729c-0.576-2.372-1.444-4.452-2.725-5.939c4.848-2.148,10.03-4.202,15.455-6.025
				c0.67,1.591,1.546,3.645,2.595,6.018c2.631,5.938,6.369,13.881,10.702,21.677c1.219,2.2,2.492,4.393,3.808,6.524
				c6.833,11.147,14.655,20.629,21.806,21.479c0,0,9.404-1.264,21.282-21.479c1.169-1.986,2.355-4.152,3.567-6.524
				c3.086-6.051,6.283-13.399,9.489-22.339c0.705-1.977,1.418-4.031,2.123-6.163c5.991,1.89,11.706,4.091,17.053,6.429
				c0.241,0.354,0.456,0.715,0.637,1.084c0,0-0.585,2.251-1.169,5.818c-0.637,3.894-1.272,9.352-1.152,15.171
				c0.043,2.149,0.198,4.341,0.48,6.524c0.035,0.283,0.078,0.566,0.121,0.851c0,0,5.612,10.877,3.893,30.647
				c-1.719,19.77-9.753,39.946-9.181,60.44C1543.752,1340.664,1585.231,1447.538,1586.09,1481.061z M1447.8,1224.291
				c-1.393-0.875-2.416-1.529-2.992-1.897C1445.384,1222.779,1446.407,1223.44,1447.8,1224.291z"/>
		</g>
		<g>
			<g>
				<path style="fill:#E88F62;" d="M212.401,1208.846c4.096,18.853,41.902,63.653,42.037,63.743
					c0.328,0.219,0.841,0.372,1.481,0.487c0.026,0.007,0.045,0.007,0.07,0.014c3.123,0.537,9.214,0.313,12.555,3.135
					c4.059,3.418,14.536,4.488,17.742,1.924c3.207-2.564-1.07-7.054-5.559-13.685c-4.488-6.622-13.465-4.699-16.241-4.27
					c-1.655,0.25-3.084-1.237-3.963-2.481c-0.019-0.025-0.032-0.045-0.051-0.07c-0.167-0.244-0.321-0.475-0.442-0.68
					c-3.822-11.177-12.434-27.181-21.334-46.167c-1.783-3.797-1.52-8.246,0.705-11.805c5.944-9.496,18.012-29.227,25.776-45.058
					c0.905-4.578,1.808-8.881,2.507-12.139c-17.056-2.744-24.115-13.119-26.397-17.544
					C233.227,1139.892,208.361,1190.265,212.401,1208.846z"/>
				<path style="fill:#E88F62;" d="M401.657,1186.011c16.375,10.2,74.851,14.313,75.009,14.278c0.385-0.082,0.852-0.343,1.382-0.723
					c0.022-0.014,0.035-0.027,0.058-0.041c2.563-1.865,6.648-6.389,10.999-6.818c5.28-0.528,13.368-1.851,13.763-5.938
					c0.396-4.086-8.11-6.473-15.993-7.875c-7.878-1.396-10.467,3.261-12.094,5.551c-0.974,1.361-3.037,1.35-4.541,1.112
					c-0.032-0.003-0.055-0.008-0.087-0.012c-0.291-0.05-0.564-0.102-0.796-0.157c-10.678-5.049-28.157-10.026-47.976-16.877
					c-3.964-1.367-6.219-4.92-7.974-8.732c-6.114-13.29-12.379-21.241-18.537-36.081c-1.18-2.845-2.888-5.434-5.083-7.594
					c-4.447-4.376-10.941-9.98-12.289-12.001c-13.855,10.318-21.735,9.113-26.5,7.666
					C356.599,1128.45,385.517,1175.957,401.657,1186.011z"/>
				<path style="fill:#E88F62;" d="M298.47,1088.113c2.361-1.219,3.591-11.651,4.168-19.037c0.026-0.327,0.051-0.642,0.07-0.955
					l0.065-0.912c0.031-0.441,0.064-0.865,0.089-1.269l0.025-0.398l0.743,0.027c-0.09-0.086-0.181-0.172-0.27-0.259
					c-8.413-8.043-1.676-12.972-5.032-37.776c-1.504-11.114,9.815-16.16,32.213-14.217c12.2,1.064,18.077,4.168,19.399,11.041
					c1.112,5.746-1.286,11.849-1.589,21.814c-0.253,8.42,0.04,14.282-4.293,18.096c-3.242,2.853-6.228,5.058-8.991,6.726
					c0.35,8.258,0.266,15.92,3.163,16.729c0.263,0.076,10.17,1.52,10.17,1.52l-32.618,23.256c0,0-30.932-16.146-34.35-18.62
					C288.038,1088.696,297.13,1088.806,298.47,1088.113z"/>
				<path style="fill:#103663;" d="M284.665,1012.91c3.128-4.476,7.302-7.486,11.786-9.493c-6.085-4.008-4.373-9.567-4.07-15.618
					c0.354-7.071,7.248-10.077,7.248-10.077c-3.005,0.531-5.656,2.475-5.656,2.475c2.475-4.95,9.369-7.425,21.037-6.895
					c11.667,0.531,16.439,9.016,16.439,9.016c0-3.359-5.302-9.016-5.302-9.016s14.142,6.364,15.556,19.092
					c0.511,4.593-1.639,7.661-4.588,9.78c7.296,2.084,15.641,6.491,17.506,15.817c3.46,17.296-8.692,24.457-10.111,28.18
					c0,0-2.532,1.608-4.186-3.196c-1.654-4.805-7.012-1.547-4.525,3.455c2.487,5.001,1.646,12.803-5.008,18.013
					c-6.655,5.211-21.14,4.293-22.293,6.79c0,0-5.7-6.517-10.801-10.194C287.403,1053.618,272.367,1030.504,284.665,1012.91z"/>
				<path style="fill:#2B478B;" d="M332.927,1604.82c0.269,2.46-0.146,4.95-1.208,7.187c-14.867,31.396-1.652,31.326-1.652,31.326
					s11.101-0.061,22.923-0.061c10.608,0,5.465-13.838,3.42-19.926c-1.284-3.813-2.868-8.579-3.875-11.601
					c-0.653-1.953-0.815-4.035-0.468-6.058c1.421-8.348,2.69-16.144,3.812-23.423c13.491-87.558,6.358-101.234,5.658-110.751
					c-0.768-10.408,24.699-147.249,23.915-155.521c-0.784-8.264-13.383-55.802-13.383-55.802
					c-22.524,3.098-66.902,52.351-66.902,52.351s19.472,146.059,17.419,164.508c-1.407,12.707,4.229,70.346,7.88,104.993
					C331.527,1592.159,332.428,1600.315,332.927,1604.82z"/>
				<path style="fill:#2B478B;" d="M149.616,1643.333h64.573c0,0,5.634-4.39,3.075-14.645c-1.123-4.481-1.246-9.332-1.038-13.383
					c0.269-5.097,1.783-10.048,4.335-14.468c3.083-5.327,8.025-14.291,13.284-25.552c11.131-23.854,23.669-57.986,22.862-89.519
					c0,0,45.502-103.271,49.86-136.834c4.351-33.57-56.886-60.837-56.886-60.837c-0.385,2.536-18.718,81.369-28.051,184.733
					c-1.253,13.883-10.017,63.819-16.374,99.096c-2.453,13.631-4.551,25.069-5.712,31.403c-0.653,3.527-2.29,6.78-4.736,9.401
					c-6.387,6.857-19.133,20.086-23.669,21.602C164.99,1636.376,149.616,1636.215,149.616,1643.333z"/>
				<path style="fill:#2B478B;" d="M237.151,1353.439c4.707,1.405,5.916,1.806,10.753,2.837c29.482,6.303,55.816,6.147,55.816,6.147
					l4-11.946c0-0.031,0.006-0.062,0.025-0.093c0.036-0.258,0.196-0.436,0.399-0.521c0.3-0.129,0.681-0.062,0.889,0.203
					c0.086,0.104,0.142,0.245,0.154,0.411l2.393,12.152c6.296,0.737,10.66,0.919,16.172,0.962c1.926,0.019,3.823-0.006,5.652-0.055
					c3.436-0.099,6.701-0.319,9.794-0.627c9.267-0.926,16.969-2.669,23.081-4.547c11.353-3.486,13.079-0.256,13.079-0.256
					c0.257-1.387,3.826-19.986,4.04-21.637c1.761-13.489,3.04-24.706,2.071-32.439c-0.54-4.319-1.981-10.045-3.731-15.938
					c-4.025-13.525-9.671-27.904-9.671-27.904c-26.567,8.396-119.402-1.222-119.402-1.222L237.151,1353.439z"/>
				<path style="fill:#99332B;" d="M330.067,1643.333c0,0,11.101-0.061,22.923-0.061c10.608,0,5.465-13.838,3.42-19.926
					c-1.284-3.813-2.868-8.579-3.875-11.601c-0.653-1.953-0.815-4.035-0.468-6.058c1.421-8.348,2.69-16.144,3.812-23.423
					c-4.812,0.861-13.629,1.73-25.414-0.223c1.06,10.116,1.961,18.272,2.46,22.777c0.269,2.46-0.146,4.95-1.208,7.187
					C316.852,1643.402,330.067,1643.333,330.067,1643.333z"/>
				<path style="fill:#99332B;" d="M149.616,1643.333h64.573c0,0,5.634-4.39,3.075-14.645c-1.123-4.481-1.246-9.332-1.038-13.383
					c0.269-5.097,1.783-10.048,4.335-14.468c3.083-5.327,8.025-14.291,13.284-25.552c-5.919,0.976-16.052,1.345-28.589-3.36
					c-2.453,13.631-4.551,25.069-5.712,31.403c-0.653,3.527-2.29,6.78-4.736,9.401c-6.387,6.857-19.133,20.086-23.669,21.602
					C164.99,1636.376,149.616,1636.215,149.616,1643.333z"/>
				<path style="fill:#233862;" d="M375.632,1262.521c0,0-21.732,27.063-62.307,23.141c-40.575-3.923-61.966-20.31-61.966-20.31
					L375.632,1262.521z"/>
				<path style="fill:#E9F3FE;" d="M263.641,1150.285c-0.022-0.143-0.042-0.282-0.063-0.424
					c-17.096-3.73-24.574-21.125-24.574-21.125c5.641-11.631,18.597-26.503,23.751-32.197c0.617-1.108,1.337-1.925,2.177-2.371
					c9.794-5.196,71.707-16.042,111.574,3.768c0,0,14.391,13.592,21.232,31.18c0,0-1.876,3.852-5.927,8.279
					c-4.533,4.962-11.798,10.63-22.21,12.414c-2.766,10.34-15.195,57.445-13.828,64.281c1.538,7.688,22.931,34.463,19.857,48.431
					c-1.476,6.719-38.644,16.274-80.586,12.33c-14.414-1.353-29.397-4.298-43.687-9.501c-3.044-1.107-2.783-7.341-1.676-10.386
					c2.145-5.911,8.671-17.227,19.249-41.642c1.553-3.605-2.36-43.157-5.289-63.021
					C263.641,1150.294,263.641,1150.285,263.641,1150.285z"/>
				<g>
					<path style="fill:#D1E2F2;" d="M355.773,1214.09c1.538,7.688,22.931,34.463,19.857,48.431
						c-1.476,6.719-38.644,16.274-80.586,12.33C354.505,1273.891,355.773,1214.09,355.773,1214.09z"/>
					<path style="fill:#D1E2F2;" d="M375.929,1129.53c3.99-0.961,11.123,4.013,15.882,7.864
						c-4.551,4.981-11.854,10.678-22.332,12.438C369.541,1146.919,370.156,1130.93,375.929,1129.53z"/>
					<path style="fill:#D1E2F2;" d="M263.641,1150.285c0,0,12.769-2.559,17.796,12.301c5.021,14.859-9.278,48.43-12.507,50.736
						c1.553-3.605-2.36-43.157-5.289-63.021C263.641,1150.294,263.641,1150.285,263.641,1150.285z"/>
				</g>
			</g>
			<path style="fill:#233862;" d="M303.586,1362.927c0,0,0.748-24.761,27.9-22.513c0,0-20.296,14.631-19.567,24.955
				C311.92,1365.369,308.597,1359.17,303.586,1362.927z"/>
		</g>
	</g>
	<g>
		<path style="fill:#FFB27D;" d="M1004.006,1634.293c0,0,23.403-26.751,30.023-38.93l18.208-33.626l23.835,5.894l-30.251,42.871
			l-31.6,26.738L1004.006,1634.293z"/>
		<path style="fill:#163560;" d="M1154.72,977.29c5.498-3.125,12.086-3.466,16.694-3.194c-1.187-1.225-3.521-1.671-3.521-1.671
			c2.858-0.425,9.236,2.41,9.236,2.41c39.75-15.316,45.998,43.211,45.162,56.81c-0.829,13.596,13.358,18.036,34.039,28.749
			c39.458,20.441,42.924,47.813,42.924,47.813c-0.308,0.181-0.628,0.388-0.97,0.623c-1.957-3.317-5.988-9.545-9.386-10.485
			c0.129,0.302,4.016,8.575,5.466,13.316c-11.641,8.854-33.417,28.476-48.594,42.388c0.068-2.719-0.041-6.58-1.034-8.618
			l-1.875,11.291c-8.122,7.467-13.722,12.719-13.722,12.719c1.003-10.988-49.696-68.975-76.147-86.341
			c-6.439-9.479-8.728-26.226-8.899-27.544c1.112,13.278,3.383,20.727,5.414,24.92
			C1127.108,1059.861,1140.147,985.57,1154.72,977.29z"/>
		<path style="fill:#9C5F33;" d="M1154.558,1083.964c-0.132,0.06,12.772,6.76,22.478,4.104c9.13-2.489,15.095-14.327,14.969-14.354
			c-3.866-0.768-4.981-6.081-4.899-28.913l-1.748,0.345l-29.39,5.819c0,0,0.669,9.249,0.688,17.962
			C1156.677,1076.244,1156.233,1083.183,1154.558,1083.964z"/>
		<path style="fill:#A8D29F;" d="M1187.794,986.873c0,0-14.499-15.434-32.7-0.789
			C1155.094,986.084,1165.687,984.252,1187.794,986.873z"/>
		<path style="fill:#163560;" d="M1188.393,1041.947c0,0,8.619-13.618,10.688-25.263c1.477-8.313-2.757-39.128-33.723-34.69
			c0,0-8.994,0.886-17.448,6.596c-6.723,4.54-16.426,14.344-5.576,41.233l2.817,9.084L1188.393,1041.947z"/>
		<path style="fill:#80BDCC;" d="M1038.829,1583.611l15.579,0.477l16.862,0.517c0,0,38.95-43.366,60.799-112.884
			c0.51-1.616,1.046-3.251,1.615-4.906c11.958-34.864,36.745-78.628,49.808-118.239c2.08-6.311,3.946-12.249,5.621-17.87
			c0.537-1.801,1.06-3.568,1.556-5.31c9.626-33.448,12.414-55.409,14.983-78.873l-94.326,0.755
			C1111.327,1247.277,1096.099,1407.499,1038.829,1583.611z"/>
		<path style="fill:#C8E5C1;" d="M1117.948,1257.22c0,0,40.386,20.519,88.386,5.415c0.565-0.178-3.17-185.537-16.783-190.643
			c-3.132,3.899-12.404,7.801-20.707,7.614c-9.561-0.211-12.662-4.304-12.166-8.772c-10.189,5.67-18.319,11.025-18.319,11.025
			C1129.699,1096.901,1117.948,1257.22,1117.948,1257.22z"/>
		<path style="fill:#5F9AA8;" d="M1205.653,1198.08c4.123,5.836,12.028,41.306,31.695,45.764
			c-10.134-25.279-17.829-36.363-19.031-44.136c-2.229-14.509-2.278-29.522-1.167-43.683c-6.583-11.539-11.497-19.45-11.497-19.45
			c-0.517-1.866-10.463-32.618-13.65-5.13C1188.823,1158.94,1201.047,1191.552,1205.653,1198.08z"/>
		<path style="fill:#AB7041;" d="M1150.476,1059.217c0,0,38.911,0.642,38.938-23.597c0.026-24.237,5.066-40.479-19.776-41.913
			c-24.842-1.434-29.68,7.809-31.656,15.897C1136.005,1017.691,1140.355,1058.425,1150.476,1059.217z"/>
		<path style="fill:#163560;" d="M1151.916,993.113c0,0,10.654,28.436,27.004,32.64c16.35,4.205,23.442-0.176,23.442-0.176
			s-0.428-11.956-3.03-29.347C1199.333,996.231,1159.952,979.579,1151.916,993.113z"/>
		<path style="fill:#163560;" d="M1154.557,995.422c0,0-7.956,6.349-9.896,12.521c-1.939,6.172-2.812,18.878-6.516,18.446
			c0,0-8.026-19.328,0.995-30.261C1148.704,984.534,1154.557,995.422,1154.557,995.422z"/>
		<path style="fill:#FFB27D;" d="M1179.628,1630.289c1.325-7.283,3.844-19.878,3.844-19.878l-0.584-44.688h27.142l-10.156,42.773
			c-0.209,1.984-0.764,9.69,2.087,17.861c0,0,2.606,11.876-9.09,12.097S1178.305,1637.571,1179.628,1630.289z"/>
		<path style="fill:#233862;" d="M1178.524,1644.263h24.324c1.214-6.362-0.889-17.888-0.889-17.888
			c-13.237,12.83-21.528-0.321-21.528-0.321C1178.457,1631.069,1178.497,1642.389,1178.524,1644.263z"/>
		<path style="fill:#233862;" d="M992.647,1644.347h29.986c2.602-2.419,5.096-7.185,8.129-13.413
			c1.766-3.605,5.715-5.594,9.766-6.686v20.099h6.214l5.702-21.379c3.822-7.192,0.897-13.66-1.792-19.343
			c-3.127-0.006-12.12,2.135-28.054,20.528c-5.236,6.032-11.013,8.196-16.755,8.007c-0.081,0.055-0.162,0.096-0.236,0.128
			C996.623,1636.434,993.631,1641.516,992.647,1644.347z"/>
		<path style="fill:#EE9849;" d="M993.9,1099.443c0,0,25.541,14.28,34.665,18.398c5.201,2.348,17.169,7.952,25.604,11.913
			c5.364,2.521,11.744,1.141,15.599-3.362c13.847-16.175,49.89-51.256,86.91-55.559c0,0-22.512,55.615-23.175,66.87
			c-0.662,11.256-2.648,184.058-2.648,184.058s1.324,7.945-13.903,4.634c-15.228-3.31-19.2-6.62-19.2-6.62
			s14.565-106.595,10.593-143.671c-0.783-7.307-0.07-15.524,1.573-24.009c-22.553,13.718-49.242,19.816-49.242,19.816
			s-19.953-8.704-47.228-28.689c-8.562-6.273-23.605-30.201-23.605-30.201L993.9,1099.443z"/>
		<path style="fill:#5F9AA8;" d="M1054.408,1584.088l16.862,0.517c0,0,38.95-43.366,60.799-112.884
			c0.51-1.616,1.046-3.251,1.615-4.906c11.958-34.864,36.745-78.628,49.808-118.239c2.08-6.311,3.946-12.249,5.621-17.87
			c0.537-1.801,1.06-3.568,1.556-5.31l-13.89-10.541c0,0-41.704,67.532-54.615,131.085
			C1110.949,1501.144,1066.034,1567.569,1054.408,1584.088z"/>
		<path style="fill:#80BDCC;" d="M1175.329,1451.858c-0.238,30.905,1.324,101.96,5.35,131.375h14.937
			c8.256,0,12.375-0.118,12.375-0.118c10.096-51.146,17.28-93.466,22.511-129.933c4.29-29.927,8.103-55.581,11.036-77.668
			c2.953-22.227,5.005-40.837,5.741-56.562c0.112-2.476,0.198-4.886,0.245-7.224c0.046-2.35,0.059-4.634,0.039-6.852l-81.502-7.945
			C1167.087,1351.084,1175.462,1433.896,1175.329,1451.858z"/>
		<path style="fill:#5F9AA8;" d="M1195.615,1583.233c8.256,0,12.375-0.118,12.375-0.118c10.096-51.146,17.28-93.466,22.511-129.933
			c4.29-29.927,8.103-55.581,11.036-77.668c2.953-22.227,5.005-40.837,5.741-56.562l-29.906,17.592c0,0,19.088,6.733,11.805,57.713
			C1221.893,1445.238,1205.752,1576.017,1195.615,1583.233z"/>
		<path style="fill:#EE9849;" d="M1191.768,1318.453c0,0,5.736,20.738,25.598,18.09c19.864-2.643,48.11-14.565,48.11-14.565
			s-8.492-26.819-19.041-62.056c-0.115-0.371-0.222-0.748-0.337-1.126c-12.455-41.605-27.674-94.569-35.243-129.03
			c-0.162-0.735-0.317-1.463-0.472-2.178c-2.09-9.719-3.525-17.834-4.051-23.65l-16.782-31.948c0,0-24.264,55.12-25.592,69.024
			C1162.637,1154.918,1191.768,1318.453,1191.768,1318.453z"/>
		<path style="fill:#AB7041;" d="M1211.599,1138.943l-22.048-66.951c0.059,0.027,27.768,8.131,41.556,15.097
			c0,0,8.618,11.11,13.95,36.744c0,0,5.634,61.541-6.946,84.052c0,0-39.725,7.945-103.284-13.903v-14.565
			c0,0,69.518,3.641,83.753,5.296L1211.599,1138.943z"/>
		<path style="fill:#D86713;" d="M1194.558,1170.145c0.876,22.208,6.046,65.041,51.541,88.651
			c-12.455-41.605-27.674-94.569-35.243-129.03C1202.606,1142.43,1194.107,1158.431,1194.558,1170.145z"/>
		<path style="fill:#EE9849;" d="M1189.551,1071.992c0,0,40.616,2.815,50.326,24.443c9.711,21.627,12.8,93.573,0.442,114.76
			c0,0-17.015,4.846-47.109-0.782c-0.369-0.068-0.739-0.14-1.112-0.211c0,0-9.599-23.504-0.993-28.139
			c0,0,25.379,1.324,22.731-7.062C1211.187,1166.615,1189.551,1071.992,1189.551,1071.992z"/>
		<path style="fill:#233862;" d="M974.127,1100.68c0,0,12.966,232.185,18.353,275.282c0,0,17.444,8.466,32.837,3.849l19.496-170.554
			l19.241,171.932c0,0,24.884,7.344,43.868-3.431l10.165-214.451l-18.45-3.145c-36.897-6.288-71.873-20.915-102.263-42.767
			L974.127,1100.68z"/>
		<path style="fill:#AB7041;" d="M993.9,1099.443c0,0-5.485-19.77-27.219-16.976c-2.494,0.781-9.782,3.688-5.124,11.49
			c3.434,5.751,4.921,2.783,10.322,10.513c5.401,7.729,11.264,9.476,17.963,8.551L993.9,1099.443z"/>
		<path style="fill:#AB7041;" d="M1141.955,1183.289c0,0-5.539-6.712-6.719-13.564c-1.181-6.853-4.847-11.935-14.406-13.19
			s-13.668-1.392-13.644,1.303s7.81,21.506,21.526,32.741C1142.43,1201.812,1141.955,1183.289,1141.955,1183.289z"/>
	</g>
	<path style="fill:#99332B;" d="M620.75,1580.161c0,0,2.081-0.065,5.674-0.152c-0.242-0.028-0.403-0.059-0.458-0.091
		c-1.868-1.099-4.204-2.172-4.204-6.622c0-4.449,5.839-6.621,5.839-6.621s0.595-0.027,1.675-0.077
		c-1.965-0.171-3.136-0.322-3.31-0.425c-1.868-1.099-4.204-2.173-4.204-6.622c0-3.395,3.393-5.459,5.004-6.249
		c-4.564-0.079-7.375-0.194-7.652-0.357c-1.869-1.099-4.205-2.172-4.205-6.621s5.84-6.622,5.84-6.622s2.372-0.093,6.407-0.251
		c-0.681-0.106-1.093-0.193-1.19-0.251c-1.868-1.099-4.204-2.173-4.204-6.622c0-4.448,5.839-6.621,5.839-6.621s105.117,0,112.359,0
		h48.028c0,0,105.117,0,112.358,0c7.241,0,12.18,0.194,13.315,4.781c2.131,8.609-7.858,84.109-8.651,90.069
		c4.299,0.389,6.88,1.559,8.651,4.611c2.336,4.024-2.336,8.462-2.336,8.462H625.967c-1.868-1.1-4.204-2.172-4.204-6.621
		c0-3.652,3.93-5.768,5.339-6.409c-0.65-0.084-1.04-0.156-1.135-0.213c-1.868-1.099-4.204-2.172-4.204-6.621
		s5.839-6.621,5.839-6.621s0.628-0.015,1.783-0.042c-2.032-0.19-3.24-0.356-3.417-0.461c-1.868-1.099-4.204-2.172-4.204-6.621
		c0-3.559,3.729-5.656,5.225-6.354c-4.702-0.161-7.589-0.344-7.873-0.511c-1.869-1.1-4.205-2.172-4.205-6.621
		S620.75,1580.161,620.75,1580.161z"/>
	<g>
		<path style="fill:#C4453B;" d="M819.697,1634.07c0,0,5.425-4.628,3.089-8.652c-2.336-4.026-6.073-4.781-13.314-4.781
			s-112.358,0-112.358,0s-5.841,2.173-5.841,6.622s2.337,5.521,4.206,6.621C697.346,1634.978,819.697,1634.07,819.697,1634.07z"/>
		<path style="fill:#C4453B;" d="M814.082,1620.69c0,0,10.922,0.449,8.703-8.516c-1.135-4.587-6.073-4.78-13.314-4.78
			s-112.358,0-112.358,0s-5.841,2.172-5.841,6.621s2.337,5.522,4.206,6.621C697.346,1621.735,814.082,1620.69,814.082,1620.69z"/>
		<path style="fill:#E57970;" d="M813.928,1607.408c0,0,11.077-0.014,8.858-8.979c-1.135-4.588-6.073-4.78-13.314-4.78
			s-112.358,0-112.358,0s-5.841,2.172-5.841,6.621s2.751,6.193,4.621,7.292C697.761,1608.661,813.928,1607.408,813.928,1607.408z"/>
		<path style="fill:#C4453B;" d="M807.675,1593.905c0,0,10.477,0.002,8.259-8.963c-1.136-4.587-6.074-4.781-13.315-4.781
			c-7.241,0-112.358,0-112.358,0s-5.84,2.174-5.84,6.623s2.336,5.521,4.205,6.621
			C690.495,1594.503,807.675,1593.905,807.675,1593.905z"/>
		<path style="fill:#C65447;" d="M814.082,1579.972c0,0,10.922,0.449,8.703-8.516c-1.135-4.588-6.073-4.781-13.314-4.781
			s-112.358,0-112.358,0s-5.841,2.172-5.841,6.621c0,4.45,2.337,5.523,4.206,6.622
			C697.346,1581.017,814.082,1579.972,814.082,1579.972z"/>
		<path style="fill:#C4453B;" d="M813.547,1566.733c0,0,11.458-0.059,9.239-9.023c-1.135-4.587-6.073-4.78-13.314-4.78
			s-112.358,0-112.358,0s-5.841,2.172-5.841,6.621s2.862,6.026,4.731,7.125C697.871,1567.774,813.547,1566.733,813.547,1566.733z"/>
		<path style="fill:#C65447;" d="M807.23,1552.999c0,0,10.922,0.447,8.704-8.517c-1.136-4.587-6.074-4.781-13.315-4.781
			c-7.241,0-112.358,0-112.358,0s-5.84,2.173-5.84,6.622s2.336,5.522,4.205,6.621C690.495,1554.042,807.23,1552.999,807.23,1552.999
			z"/>
		<path style="fill:#E57970;" d="M814.094,1539.701c0,0,10.911,0,8.692-8.964c-1.135-4.587-6.073-4.781-13.314-4.781
			s-112.358,0-112.358,0s-5.841,2.173-5.841,6.621c0,4.449,2.862,6.187,4.731,7.286
			C697.871,1540.961,814.094,1539.701,814.094,1539.701z"/>
	</g>
	<g>
		<g>
			<path style="fill:#C4453B;" d="M980.836,1633.88c0,0,4.672-4.438,2.336-8.462c-2.336-4.026-6.073-4.781-13.315-4.781
				c-7.242,0-112.358,0-112.358,0s-5.841,2.173-5.841,6.622s2.336,5.521,4.205,6.621
				C857.733,1634.978,980.836,1633.88,980.836,1633.88z"/>
			<path style="fill:#C4453B;" d="M974.469,1620.69c0,0,10.922,0.449,8.703-8.516c-1.136-4.587-6.073-4.78-13.315-4.78
				c-7.242,0-112.358,0-112.358,0s-5.841,2.172-5.841,6.621s2.336,5.522,4.205,6.621
				C857.733,1621.735,974.469,1620.69,974.469,1620.69z"/>
			<path style="fill:#E57970;" d="M974.246,1607.466c0,0,11.145-0.071,8.926-9.036c-1.136-4.588-6.073-4.78-13.315-4.78
				c-7.242,0-112.358,0-112.358,0s-5.841,2.172-5.841,6.621s3.51,6.222,5.379,7.32
				C858.907,1608.689,974.246,1607.466,974.246,1607.466z"/>
			<path style="fill:#C4453B;" d="M968.597,1593.649c0,0,9.943,0.258,7.723-8.707c-1.136-4.587-6.073-4.781-13.314-4.781
				s-112.358,0-112.358,0s-5.84,2.174-5.84,6.623s2.336,5.521,4.204,6.621C850.88,1594.503,968.597,1593.649,968.597,1593.649z"/>
			<path style="fill:#C65447;" d="M974.462,1580.421c0,0,10.929,0,8.71-8.965c-1.136-4.588-6.073-4.781-13.315-4.781
				c-7.242,0-112.358,0-112.358,0s-5.841,2.172-5.841,6.621c0,4.45,2.336,5.523,4.205,6.622
				C857.733,1581.017,974.462,1580.421,974.462,1580.421z"/>
			<path style="fill:#C4453B;" d="M974.361,1566.752c0,0,11.03-0.077,8.811-9.042c-1.136-4.587-6.073-4.78-13.315-4.78
				c-7.242,0-112.358,0-112.358,0s-5.841,2.172-5.841,6.621s3.503,6.226,5.372,7.324
				C858.9,1567.974,974.361,1566.752,974.361,1566.752z"/>
			<path style="fill:#C65447;" d="M967.617,1552.999c0,0,10.923,0.447,8.703-8.517c-1.136-4.587-6.073-4.781-13.314-4.781
				s-112.358,0-112.358,0s-5.84,2.173-5.84,6.622s2.336,5.522,4.204,6.621C850.88,1554.042,967.617,1552.999,967.617,1552.999z"/>
			<path style="fill:#E57970;" d="M974.13,1539.701c0,0,11.261,0,9.042-8.964c-1.136-4.587-6.073-4.781-13.315-4.781
				c-7.242,0-112.358,0-112.358,0s-5.841,2.173-5.841,6.621c0,4.449,2.692,6.025,4.561,7.124
				C858.089,1540.799,974.13,1539.701,974.13,1539.701z"/>
		</g>
	</g>
	<g>
		<polygon style="fill:#FFB27D;" points="1573.484,1560.637 1584.529,1607.156 1601.073,1607.063 1601.681,1560.637 		"/>
		<polygon style="fill:#FFB27D;" points="1712.649,1562.619 1744.077,1607.156 1756.326,1591.43 1737.411,1556.496 		"/>
		<path style="fill:#163560;" d="M1599.681,979.807c-6.239-2.054-13.02-1.049-17.657,0.174c0.958-1.49,3.242-2.424,3.242-2.424
			c-2.997,0.154-8.911,4.35-8.911,4.35c-43.625-7.439-37.974,53.448-34.329,67.125c3.634,13.677-9.902,21.11-28.765,36.266
			c-35.988,28.918-33.898,57.505-33.898,57.505c0.35,0.121,0.719,0.267,1.115,0.435c1.313-3.779,4.139-10.949,7.407-12.604
			c-0.069,0.334-2.331,9.557-2.834,14.683c70.737,58.999,114.738-34.991,138.11-58.105c4.611-10.977,3.505-28.501,3.409-29.878
			c1.593,13.749,0.81,21.802-0.398,26.489C1644.75,1058.228,1616.221,985.248,1599.681,979.807z"/>
		<path style="fill:#FFB27D;" d="M1616.941,1091.821c0.139,0.062-13.269,7.022-23.351,4.265
			c-9.485-2.587-15.682-14.886-15.552-14.912c4.018-0.798,5.175-6.318,5.09-30.037l1.816,0.357l30.531,6.046
			c0,0-0.694,9.609-0.716,18.661C1614.741,1083.802,1615.201,1091.01,1616.941,1091.821z"/>
		<path style="fill:#5FABB7;" d="M1567.965,996.356c0,0,11.598-18.694,33.141-7.517
			C1601.105,988.839,1589.941,989.148,1567.965,996.356z"/>
		<path style="fill:#EF9E67;" d="M1615.477,1057.54c0,0-0.694,9.609-0.716,18.661c-17.084-0.481-26.116-16.068-29.815-24.707
			L1615.477,1057.54z"/>
		<path style="fill:#163560;" d="M1578.66,1052.566c0,0-11.572-12.1-16.068-23.534c-3.211-8.163-5.226-40.414,27.221-42.25
			c0,0,9.343-0.944,19.124,3.135c7.778,3.244,19.673,11.237,14.144,40.847l-1.006,9.83L1578.66,1052.566z"/>
		<path style="fill:#2B478B;" d="M1753.382,1581.255c0,0-8.114,1.399-14.777,1.908c-1.479,0.111-2.886,0.178-4.114,0.178
			c-3.209,0-8.987-1.208-12.869-2.113l-0.29-0.065c-1.704-0.402-3.006-0.732-3.486-0.858l-0.205-0.053
			c0,0-40.471-45.052-63.164-117.269c-0.528-1.684-1.09-3.381-1.677-5.098c-12.428-36.224-38.18-81.685-51.747-122.842
			c-2.16-6.55-4.102-12.724-5.838-18.561c-0.562-1.869-1.102-3.704-1.617-5.514c-10.004-34.751-12.896-57.564-15.563-81.943
			l81.592,20.76C1659.626,1249.785,1693.883,1398.293,1753.382,1581.255z"/>
		<path style="fill:#FFB27D;" d="M1620.82,1062.369c0,0-39.495,8.642-44.497-16.036c-5.003-24.68-13.471-40.184,11.535-46.745
			c25.005-6.561,31.828,1.861,35.502,9.691C1627.033,1017.109,1630.965,1059.485,1620.82,1062.369z"/>
		<path style="fill:#163560;" d="M1605.784,995.346c0,0-5.013,31.146-20.8,38.784s-23.91,4.632-23.91,4.632
			s5.621-15.409,4.701-33.656C1565.775,1005.106,1594.822,983.211,1605.784,995.346z"/>
		<path style="fill:#163560;" d="M1603.57,998.238c0,0,9.405,4.832,12.647,10.72c3.241,5.888,6.739,18.648,10.422,17.448
			c0,0,4.206-21.331-7.225-30.614C1607.294,985.948,1603.57,998.238,1603.57,998.238z"/>
		<path style="fill:#FFB27D;" d="M1583.973,1604.557c0,0,1.333,9.214-2.105,19.072c0,0-2.709,12.338,9.443,12.566
			c12.151,0.229,15.132-0.916,13.756-8.482s-3.993-20.65-3.993-20.65L1583.973,1604.557z"/>
		<path style="fill:#233862;" d="M1581.867,1623.629c0,0-2.25,11.65-0.874,17.84c0,0,3.667,2.752,12.495,2.752
			c8.368,0,12.725-2.752,12.725-2.752s0.258-12.768-1.978-18.155C1604.235,1623.313,1595.623,1636.238,1581.867,1623.629z"/>
		<path style="fill:#FFB27D;" d="M1785.607,1628.948c0,0-22.402-24.866-29.281-37.519l-16.659,8.533l37.238,34.972l8.712-1.146
			L1785.607,1628.948z"/>
		<path style="fill:#233862;" d="M1799.838,1643.522c0,0-24.074,0-28.201-0.46c-4.126-0.454-7.447-6.417-11.919-15.358
			c-1.829-3.66-5.937-5.675-10.146-6.782l0.262,22.601h-6.36l-6.281-23.901c-3.969-7.29-0.982-13.901,1.81-19.658
			c3.247-0.006,12.649,2.216,29.197,20.862c5.44,6.121,11.445,8.309,17.409,8.123c0.082,0.056,0.165,0.097,0.248,0.13
			C1799.611,1635.27,1799.838,1643.522,1799.838,1643.522z"/>
		<path style="fill:#233862;" d="M1738.604,1583.163c-1.479,0.111-2.886,0.178-4.114,0.178c-3.209,0-8.987-1.208-12.869-2.113
			l-0.29-0.065l-3.486-0.858l-0.205-0.053c0,0-40.471-45.052-63.164-117.269c-0.528-1.684-1.09-3.381-1.677-5.098
			c-12.428-36.224-38.18-81.685-51.747-122.842c-2.16-6.55-4.102-12.724-5.838-18.561c-0.562-1.869-1.102-3.704-1.617-5.514
			l14.427-10.955c0,0,43.329,70.157,56.74,136.181C1675.883,1490.92,1723.748,1561.868,1738.604,1583.163z"/>
		<path style="fill:#2B478B;" d="M1609.537,1442.348c0.243,32.104-1.381,105.918-5.561,136.484c0,0-3.967,3.508-13.8,3.548
			c-10.069,0.042-14.573-3.674-14.573-3.674c-10.492-53.134-17.954-97.098-23.388-134.983c-4.457-31.088-8.419-57.744-11.463-80.689
			c-2.7-20.33-4.682-37.756-5.632-52.777c-0.125-2.041-0.238-4.034-0.331-5.982c-0.118-2.575-0.211-5.078-0.257-7.501
			c-0.047-2.442-0.06-4.82-0.04-7.124l0.35-0.033l20.271-1.975l64.048-6.246C1618.093,1337.652,1609.396,1423.688,1609.537,1442.348
			z"/>
		<path style="fill:#233862;" d="M1590.177,1582.38c-8.567,0.496-14.573-3.674-14.573-3.674
			c-10.492-53.134-17.954-97.098-23.388-134.983c-4.457-31.088-8.419-57.744-11.463-80.689c-2.7-20.33-4.682-37.756-5.632-52.777
			c-0.113-7.402-0.192-14.494-0.278-20.641c-0.092-6.233-0.191-11.51-0.362-15.182l20.634,13.207l21.711,13.886
			c0,0-30.797,28.017-23.23,80.979C1561.155,1435.468,1579.645,1574.879,1590.177,1582.38z"/>
		<path style="fill:#BC3F3F;" d="M1606.959,1080.148c0,0,32.913-5.222,43.96,5.768c13.539,13.469,38.957,90.689,37.948,99.503
			c-0.386,3.364-13.746,1.8-18.324-3.002C1647.715,1158.479,1614.983,1098.063,1606.959,1080.148z"/>
		<path style="fill:#BC3F3F;" d="M1670.891,1295.77c-24.569,6.385-139.225,18.99-140.214-9.727c-0.244-7.007,0-15.465,0.555-24.622
			c1.71-28.367,6.365-63.422,8.597-82.709c1.023-8.842-2.377-48.439,0.232-70.019c0.382-3.195,0.896-6.002,1.583-8.247
			c4.953-16.282,27.205-20.7,38.629-21.09l34.467-1.175c0,0,35.595,39.763,40.548,51.978c4.953,12.216,6.571,54.032,10.42,74.284
			C1669.558,1224.694,1682.842,1292.665,1670.891,1295.77z"/>
		<g>
			<path style="fill:#2E3552;" d="M1635.48,1209.23l3.542,0.78c-0.097-1.497-0.604-36.782-10.279-40.192l-2.731-0.404
				c3.705,1.306,6.306,8.051,8.584,20.298C1636.338,1199.076,1635.473,1209.139,1635.48,1209.23z"/>
		</g>
		<path style="fill:#A53D38;" d="M1603.178,1198.718c0,0-19.163,58.853-71.946,62.703c1.71-28.367,6.365-63.422,8.597-82.709
			c1.023-8.842-2.377-48.439,0.232-70.019c0.686,0.146,1.309,0.529,2.025,0.668
			C1600.211,1120.585,1608.46,1186.449,1603.178,1198.718z"/>
		<path style="fill:#EF9E67;" d="M1687.208,1186.867c0,0-34.6,11.346-76.759-6.852c0,0-11.484-1.086-17.182,0.363
			c0,0,1.225-11.389,6.797-14.487c5.572-3.1,29.537,3.603,36.703,2.617C1652.428,1166.355,1679.713,1164.672,1687.208,1186.867z"/>
		<path style="fill:#A53D38;" d="M1656.371,1160.368c0,0,3.246-28.117-7.759-45.065c0,0,3.886-1.32,6.675,3.082
			s22.221,46.172,12.97,49.247C1659.004,1170.707,1656.371,1160.368,1656.371,1160.368z"/>
		<path style="fill:#EF9E67;" d="M1605.858,1165.066c-0.497,0.003-16.343,2.07-19.148,4.051c-2.806,1.981-0.331,8.914,4.951,9.575
			C1596.944,1179.352,1605.858,1165.066,1605.858,1165.066z"/>
		<path style="fill:#FFB27D;" d="M1562.543,1175.721c0,0,45.131-1.651,86.069-9.575c0,0,7.483,0.067,6.603,6.604
			c-0.88,6.537-70.954,43.118-86.362,36.074L1562.543,1175.721z"/>
		<path style="fill:#FFB27D;" d="M1648.612,1166.146c0,0,4.787-5.777,7.759-5.777c2.971,0,10.729,3.797,11.886,7.264
			c1.154,3.467-9.183,0.99-13.042,5.117C1651.356,1176.877,1648.612,1166.146,1648.612,1166.146z"/>
		<path style="fill:#BC3F3F;" d="M1580.274,1079.357c0,0-37.926,0.09-43.472,13.716c-10.126,24.871,23.246,107.386,32.05,115.75
			c3.788,3.598,21.324-2.073,21.324-25.839C1590.177,1170.658,1589.291,1098.646,1580.274,1079.357z"/>
		<g>
			<path style="fill:#2E3552;" d="M1644.895,1240.548l-31.818,4.859c-6.318,0.964-12.277-3.416-13.242-9.734l-1.993-13.055
				c-0.965-6.318,3.415-12.276,9.733-13.241l31.817-4.859c6.319-0.965,12.277,3.416,13.242,9.733l1.994,13.056
				C1655.593,1233.624,1651.213,1239.583,1644.895,1240.548z"/>
			<path style="fill:#2B478B;" d="M1653.988,1239.159l-31.818,4.858c-6.317,0.965-12.277-3.416-13.242-9.733l-1.992-13.055
				c-0.966-6.318,3.416-12.277,9.733-13.241l31.817-4.859c6.318-0.965,12.278,3.416,13.242,9.733l1.994,13.055
				C1664.687,1232.236,1660.307,1238.194,1653.988,1239.159z"/>
		</g>
		<g>
			<path style="fill:#2B478B;" d="M1619.507,1209.23l-3.544,0.78c0.097-1.497,0.604-36.782,10.28-40.192l2.73-0.404
				c-3.704,1.306-6.306,8.051-8.583,20.298C1618.648,1199.076,1619.512,1209.139,1619.507,1209.23z"/>
		</g>
	</g>
	<g>
		<path style="fill:#912F2F;" d="M1994.05,979.512c0,0-11.954-18.467-31.831-8.002c-19.877,10.465-46.844,4.309-54.289,36.934
			c-7.445,32.623,16.46,55.132,0,65.246c-29.297,18.007,1.385,70.327,30.258,71.558c28.872,1.231,58.748-43.241,58.748-43.241
			L1994.05,979.512z"/>
		<path style="fill:#163560;" d="M2002.383,1567.696c13.374,37.704,22.742,52.857,22.742,52.857l16.012-1.186
			c0,0-4.367-16.932-7.816-57.083c-2.41-28.071-2.087-61.548,5.992-94.247c27.76-112.373,14.093-190.942,14.093-190.942
			l-70.817,15.173l-3.3,0.708c2.822,32.917,6.212,77.649,8.783,112.638c2.323,31.466,3.979,55.044,3.979,55.044
			C1981.097,1491.617,1990.068,1532.997,2002.383,1567.696z"/>
		<path style="fill:#1C468A;" d="M1921.504,1534.731c-9.488,44.319-7.921,84.705-7.921,84.705l13.252,3.124
			c0,0,7.727-36.129,25.663-68.747c18.468-33.58,34.584-62.969,40.626-74.327c23.989-45.047,24.995-210.619,24.995-210.619
			l-72.933-3.617c-7.335,12.331-10.534,32.557-11.293,55.553c-1.919,58.039,11.725,133.716,13.763,144.662
			c0,0.007,0,0.014,0.008,0.026c0.159,0.846-0.087,1.679-0.48,2.445C1932.675,1496.661,1927.637,1506.094,1921.504,1534.731z"/>
		<path style="fill:#FFB27D;" d="M2049.777,1285.369c-18.337-0.213-68.233-1.163-80.227-5.16
			c-14.774-4.932-18.162-19.391-18.162-20.933c0-0.333,1.209-7.118,3.131-17.626c3.831-8.052,5.742-12.899,5.862-18.022
			c0.064-2.503-0.305-5.069-1.08-8.099c-1.589-6.178-4.875-14.292-9.741-27.745c-1.717-4.727-2.891-9.593-3.62-14.506
			c-5.752-38.695,16.63-80.521,30.535-83.365c3.868-1.024,10.424-15.003,10.34-37.514l1.745,0.342l29.279,5.797
			c0,0-0.665,9.216-0.684,17.896c-0.019,7.229,0.415,14.089,2.059,14.957c2.106,0.185,3.353,0.314,3.353,0.314
			s0.028,0.035,0.082,0.11c5.578,0.359,20.378,1.68,22.336,5.678l-5.411,16.435l-1.57,4.783c4.146,8.901,8.005,19.205,9.918,29.61
			c0.535,2.945,0.912,5.892,1.107,8.828c0.166,2.501,0.174,4.884,0.064,7.191c-1.172,26.823-18.051,43.036,0.102,101.058
			C2051.799,1273.717,2051.781,1280.282,2049.777,1285.369z"/>
		<path style="fill:#FFB27D;" d="M2029.038,1225.106c29.313,0.893,71.508-32.864,71.508-32.864l-5.775-8.88
			c-10.658,7.103-48.412,13.765-48.412,13.765c2.645-8.541,4.669-16.443,6.177-23.73c10.245-49.531-3.392-70.93-7.361-75.904
			c-0.64-0.807-1.033-1.18-1.033-1.18s-0.119,0.347-0.341,1.006c-0.485,1.42-1.452,4.283-2.73,8.228
			C2031.536,1134.924,2004.543,1224.367,2029.038,1225.106z"/>
		<path style="fill:#1C468A;" d="M2049.964,1285.369c-9.136,12.379-63.004,12.376-74.998,8.377
			c-14.773-4.93-23.39-32.928-23.39-34.47c0-0.333,1.209-7.118,3.129-17.626c1.313-7.239,2.964-16.25,4.783-26.121
			c7.986-43.368,19.131-103.364,19.131-103.364s24.236,20.987,40.413,16.619c16.178-4.366,20.563-15.392,20.563-15.392
			s0.056,0.186,0.167,0.535c1.07,3.436,6.952,22.576,8.144,32.4c0.055,0.461,0.118,1.127,0.203,1.993
			c0.276,3.122,0.682,8.753,1.172,16.02c-1.172,26.823-18.051,43.036,0.101,101.058
			C2051.986,1273.717,2051.967,1280.282,2049.964,1285.369z"/>
		<path style="fill:#912F2F;" d="M2030.313,1000.179c0,0-34.612-41.593-52.937-14.978c0,0-13.671,5.67-18.615,28.94
			c-5.045,23.74,10.742,41.786,18.906,37.327c5.235-2.86,9.198,6.302,9.198,6.302L2030.313,1000.179z"/>
		<path style="fill:#EF9E67;" d="M2018.028,1062.585c0,0-0.666,9.215-0.686,17.896c-16.386-0.463-25.047-15.41-28.596-23.694
			L2018.028,1062.585z"/>
		<path style="fill:#912F2F;" d="M1985.723,1049.551c0,0-8.586-13.568-10.647-25.169c-1.471-8.283,2.747-38.983,33.599-34.563
			c0,0,8.962,0.883,17.384,6.572c6.698,4.524,16.365,14.292,5.558,41.082l-2.808,9.051L1985.723,1049.551z"/>
		<path style="fill:#FFB27D;" d="M2023.501,1072.057c0,0-38.769,0.641-38.795-23.508c-0.026-24.147-5.047-40.33,19.702-41.759
			c24.753-1.429,29.571,7.781,31.541,15.838C2037.917,1030.686,2033.584,1071.27,2023.501,1072.057z"/>
		<path style="fill:#912F2F;" d="M2022.065,1006.198c0,0-10.613,28.33-26.904,32.521c-16.289,4.189-23.354-0.176-23.354-0.176
			s9.87-11.612,12.465-28.939C1984.271,1009.604,2014.059,992.715,2022.065,1006.198z"/>
		<path style="fill:#912F2F;" d="M2019.435,1008.498c0,0,7.927,6.326,9.859,12.476c1.933,6.148,2.803,18.808,6.492,18.378
			c0,0,7.997-19.258-0.989-30.149C2025.266,997.65,2019.435,1008.498,2019.435,1008.498z"/>
		<path style="fill:#FFB27D;" d="M1889.826,1304.709l11.638,3.49c0,0,38.392-63.701,41.882-80.275
			c1.141-5.396,3.932-16.195,7.189-28.294c6.742-25.054,15.442-55.712,15.442-55.712l2.863-12.412l9.773-42.321
			c0,0-15.787,1.089-30.103,7.747c-3.56,1.656-7.642,6.184-8.608,8.302c-8.04,17.681-14.371,58.178-20.013,90.007
			c-3.145,17.741-5.543,31.51-6.795,34.428C1909.605,1237.81,1898.939,1282.604,1889.826,1304.709z"/>
		<path style="fill:#912F2F;" d="M2020.908,1009.457c0,0-7.563,29.666-28.117,39.168c0,0,20.555-18.228,22.299-37.812
			C2016.836,991.229,2020.908,1009.457,2020.908,1009.457z"/>
		<path style="fill:#283250;" d="M2078.921,1644.143c0.053,0.053,0.075,0.082,0.075,0.082h4.002
			c-0.343-0.053-0.697-0.082-1.059-0.082H2078.921z"/>
		<path style="fill:#FFB27D;" d="M2094.771,1183.362c0.444-1.112,5.995-17.545,10.215-19.766s11.991-4.663,13.768-3.774
			c1.777,0.888,5.107,13.324,0,19.763c-5.106,6.44-18.207,12.657-18.207,12.657L2094.771,1183.362z"/>
		<path style="fill:#F99746;" d="M2001.49,1372.844c-7.44,16.306-23.191,99.293-26.691,120.861
			c-29.261-3.009-51.217-17.69-66.867-33.82c8.348-31.549,16.657-69.056,18.717-99.533c0.488-7.276,1.255-16.204,2.225-26.333
			c3.923-41.171,11.246-102.118,17.533-152.439c6.186-49.507,11.385-88.74,11.385-88.74l12.604-2.565
			c0,0,21.983,16.656,25.278,73.283C1998.972,1220.192,2019.2,1334.027,2001.49,1372.844z"/>
		<path style="fill:#F99746;" d="M2022.749,1091.703c0,0,11.17,33.059,15.387,45.926c9.003,27.47,1.213,60.002,3.463,112.414
			c3.286,76.545,11.01,145.973,11.01,145.973s28.185-86.983,20.844-148.127c-13.663-113.818-33.972-153.833-40.617-154.779
			L2022.749,1091.703z"/>
		<path style="fill:#F99746;" d="M2022.749,1091.703c-0.12-0.074,15.778,0.302,21.392,4.609
			c5.613,4.309,21.002,33.651,17.771,77.303c0,0-1,13.873,2.539,16.412c3.538,2.54,11.699,0.432,11.699,0.432
			s4.381,41.426-8.238,59.584c0,0-18.339-54.061-18.095-65.039C2050.063,1174.023,2063.297,1116.163,2022.749,1091.703z"/>
		<path style="fill:#1C468A;" d="M1926.835,1622.561c0,0,14.491,11.273,20.386,13.428c5.894,2.154,13.898,4.19,13.895,8.154h-28.007
			c0,0-7.617-3.538-10.808-2.012c-5.153,2.465-9.471,2.083-13.024,2.094c-3.555,0.011-3.79-11.93-0.789-16.085
			c3.001-4.154,5.211-10.563,5.211-10.563L1926.835,1622.561z"/>
		<path style="fill:#163560;" d="M2041.137,1619.368c0,0,16.066,14.466,21.96,16.62s13.897,4.19,13.895,8.154h-28.006
			c0,0-7.618-3.538-10.81-2.012c-5.153,2.465-9.469,2.083-13.024,2.094c-3.554,0.011-3.789-11.93-0.787-16.085
			c2.999-4.154-0.154-9.848-0.154-9.848L2041.137,1619.368z"/>
		<path style="fill:#FFB27D;" d="M1890.65,1302.77c0,0-3.538,8.338-7.224,10.666c-3.684,2.326-8.919,7.949-7.949,12.409
			s1.939,11.441,6.593,11.441c4.654,0,15.513-20.556,16.871-24.433c1.356-3.878,2.521-4.654,2.521-4.654L1890.65,1302.77z"/>
		<g>
			<path style="fill:#F1A34F;" d="M2088.902,1177.173l16.402,5.462c0.604,0.201,1.258-0.125,1.459-0.73l12.363-37.126
				c0.199-0.604-0.125-1.258-0.731-1.46l-16.401-5.461c-0.604-0.201-1.259,0.126-1.461,0.73l-12.361,37.126
				C2087.971,1176.319,2088.297,1176.973,2088.902,1177.173z"/>
			<path style="fill:#D86713;" d="M2093.291,1178.634l14.709,4.898c1.071,0.356,2.23-0.223,2.588-1.295l11.797-35.434
				c0.357-1.072-0.223-2.23-1.294-2.587l-14.71-4.898c-1.071-0.357-2.23,0.224-2.588,1.296l-11.797,35.432
				C2091.639,1177.119,2092.219,1178.277,2093.291,1178.634z"/>
		</g>
		<path style="fill:#FFB27D;" d="M2119.752,1161.487c0,0-3.33-6.884-9.438-4.107c-6.107,2.774-3.441,13.212,0.111,16.876
			c3.554,3.664,4.552,5.329,4.552,5.329L2119.752,1161.487z"/>
		<path style="fill:#ED7D2B;" d="M1928.873,1334.019c3.923-41.171,11.246-102.118,17.533-152.439
			c5.207-4.081,10.609-5.642,10.609-5.642S1991.657,1276.303,1928.873,1334.019z"/>
		<path style="fill:#F99746;" d="M1957.786,1092.836c0,0-14.129,2.789-20.984,13.171c-8.899,13.479-24.006,113.104-31.854,130.187
			c-7.849,17.082-11.542,24.468-11.542,24.468s-4.154,26.511,22.16,42.108c0,0,31.854-57.805,36.01-66.114
			C1955.73,1228.346,1969.075,1110.596,1957.786,1092.836z"/>
	</g>
	<g>
		<defs>
			<path id="SVGID_1_" d="M284.417,1643.526c-9.981-24.657-81.956-158.771-89.457-329.228
				c-9.979-212.771,85.092-382.61,254.868-505.071c114.105-83.836,231.452-115.144,363.98-102.903
				c210.456,19.35,245.639,90.113,356.145-26.983c40.706-43.023,85.331-100.759,152.379-156.537
				c154.953-128.776,351.15-171.436,553.926-175.654c117.163-2.436,249.115,10.947,357.207,55.942
				c50.92,21.174,242.773,115.943,299.065,276.249c17.778,50.589,22.046,107.71,4.126,171.113
				c-63.445,224.341,33.148,252.262,154.014,359.174c161.32,142.678,213.262,335.203,83.871,433.898H284.417z"/>
		</defs>
		<clipPath id="SVGID_00000134234412838424592020000001193092145197873551_">
			<use xlink:href="#SVGID_1_"  style="overflow:visible;"/>
		</clipPath>
		<g style="clip-path:url(#SVGID_00000134234412838424592020000001193092145197873551_);">
			
				<rect x="2205" y="870.27" transform="matrix(-1 -1.224647e-16 1.224647e-16 -1 4793 2513.5356)" style="fill:#2B478B;" width="383" height="772.996"/>
			<path style="fill:#163560;" d="M2598.5,904.77h-372.814c-4.521,0-8.186-3.665-8.186-8.186l0,0c0-4.521,3.665-8.186,8.186-8.186
				H2598.5V904.77z"/>
			<path style="fill:#9FC1F4;" d="M2570.629,886.643v45.792h-24.793v-45.792c0-2.095-1.699-3.794-3.795-3.794h-38.369
				c-2.095,0-3.793,1.699-3.793,3.794v45.792h-24.793v-45.792c0-2.095-1.699-3.794-3.795-3.794h-38.369
				c-2.095,0-3.793,1.699-3.793,3.794v45.792h-24.793v-45.792c0-2.095-1.699-3.794-3.795-3.794h-38.369
				c-2.095,0-3.793,1.699-3.793,3.794v45.792h-24.793v-45.792c0-2.095-1.699-3.794-3.795-3.794h-38.369
				c-2.095,0-3.793,1.699-3.793,3.794v45.792h-24.793v-45.792c0-2.095-1.699-3.794-3.795-3.794h-21.247
				c-2.096,0-3.794,1.699-3.794,3.794v727.625h354V886.643c0-2.095-1.699-3.794-3.794-3.794h-9.784
				C2572.327,882.849,2570.629,884.547,2570.629,886.643z"/>
			<polygon style="fill:#77A4E5;" points="2294.875,1614.268 2297.123,976.126 2327.318,1614.268 			"/>
			<path style="fill:#77A4E5;" d="M2373.112,968.299L2373.112,968.299c12.79,0,22.985,10.69,22.378,23.466l-22.378,471.283
				l-22.378-471.283C2350.128,978.989,2360.322,968.299,2373.112,968.299z"/>
			<polygon style="fill:#77A4E5;" points="2565.609,1614.268 2550.61,1359.559 2537.111,1614.268 			"/>
			<polygon style="fill:#77A4E5;" points="2465.115,1614.268 2477.114,1256.495 2505.613,1614.268 			"/>
			<path style="fill:#77A4E5;" d="M2409.944,1387.323L2409.944,1387.323c7.128,0,12.769,6.031,12.292,13.144L2411,1568.238
				l-13.337-167.618C2397.092,1393.453,2402.755,1387.323,2409.944,1387.323z"/>
			<path style="fill:#77A4E5;" d="M2516.436,1009.844L2516.436,1009.844c11.009-0.666,20.136,8.418,19.521,19.43l-18.346,328.769
				l-18.469-328.762C2498.573,1019.146,2506.303,1010.457,2516.436,1009.844z"/>
			<rect x="2158.365" y="870.27" style="fill:#699FF0;" width="46.635" height="772.996"/>
			<rect x="2588" y="870.27" style="fill:#528BCE;" width="266.635" height="772.996"/>
			<rect x="2588" y="869.998" style="fill:#699FF0;" width="46.635" height="772.995"/>
		</g>
	</g>
	<path style="fill:#2E3552;" d="M2971.342,1650.55H28.658c-2.012,0-3.658-1.646-3.658-3.658l0,0c0-2.013,1.646-3.659,3.659-3.659
		h2942.683c2.012,0,3.658,1.646,3.658,3.659l0,0C2975,1648.903,2973.354,1650.55,2971.342,1650.55z"/>
</g>
</svg>
