<svg width="25" height="29" viewBox="0 0 25 29" fill="none" xmlns="http://www.w3.org/2000/svg">
<circle cx="12.5" cy="12.5" r="12.5" fill="#FFD43B"/>
<path d="M6.45477 10.5714V5.4805H8.36386C8.75496 5.4805 9.08308 5.54845 9.34823 5.68434C9.61504 5.82023 9.81639 6.0108 9.95228 6.25607C10.0898 6.49968 10.1586 6.78389 10.1586 7.1087C10.1586 7.43517 10.089 7.71855 9.9498 7.95884C9.81225 8.19748 9.60924 8.38225 9.34078 8.51317C9.07231 8.64243 8.74253 8.70706 8.35143 8.70706H6.9917V7.94144H8.22714C8.45583 7.94144 8.6431 7.90995 8.78893 7.84698C8.93476 7.78235 9.04248 7.68872 9.11208 7.56608C9.18334 7.44179 9.21897 7.28933 9.21897 7.1087C9.21897 6.92806 9.18334 6.77394 9.11208 6.64634C9.04082 6.51708 8.93228 6.4193 8.78644 6.35302C8.64061 6.28507 8.45252 6.2511 8.22217 6.2511H7.377V10.5714H6.45477ZM9.08474 8.26459L10.345 10.5714H9.31592L8.07799 8.26459H9.08474Z" fill="black"/>
<path d="M7.13588 15.0042L8.4608 19.0113H8.51301L9.83545 15.0042H10.8497L9.05491 20.0951H7.91642L6.12416 15.0042H7.13588Z" fill="black"/>
<path d="M18.1464 17.5496C18.1464 18.0982 18.0436 18.568 17.8381 18.9591C17.6343 19.3485 17.3559 19.6468 17.0029 19.854C16.6516 20.0611 16.253 20.1647 15.8072 20.1647C15.3614 20.1647 14.962 20.0611 14.6091 19.854C14.2577 19.6452 13.9793 19.346 13.7738 18.9566C13.57 18.5655 13.4681 18.0965 13.4681 17.5496C13.4681 17.0011 13.57 16.5321 13.7738 16.1427C13.9793 15.7516 14.2577 15.4525 14.6091 15.2453C14.962 15.0382 15.3614 14.9346 15.8072 14.9346C16.253 14.9346 16.6516 15.0382 17.0029 15.2453C17.3559 15.4525 17.6343 15.7516 17.8381 16.1427C18.0436 16.5321 18.1464 17.0011 18.1464 17.5496ZM17.2191 17.5496C17.2191 17.1635 17.1587 16.8379 17.0377 16.5727C16.9184 16.3059 16.7526 16.1046 16.5405 15.9687C16.3284 15.8311 16.084 15.7624 15.8072 15.7624C15.5305 15.7624 15.286 15.8311 15.0739 15.9687C14.8618 16.1046 14.6952 16.3059 14.5743 16.5727C14.4549 16.8379 14.3953 17.1635 14.3953 17.5496C14.3953 17.9358 14.4549 18.2622 14.5743 18.529C14.6952 18.7942 14.8618 18.9955 15.0739 19.1331C15.286 19.269 15.5305 19.3369 15.8072 19.3369C16.084 19.3369 16.3284 19.269 16.5405 19.1331C16.7526 18.9955 16.9184 18.7942 17.0377 18.529C17.1587 18.2622 17.2191 17.9358 17.2191 17.5496Z" fill="black"/>
<path d="M17.4136 9.35522L19.1997 10.4747L15.1623 16.9163C14.7197 17.6224 14.1636 18.1388 13.4938 18.4656C12.8273 18.7944 12.0994 18.9215 11.3101 18.8471C10.5228 18.7694 9.72801 18.4791 8.92562 17.9761C8.12003 17.4712 7.51068 16.8814 7.09758 16.2067C6.68649 15.5289 6.48363 14.8183 6.489 14.0751C6.49437 13.3319 6.71833 12.6073 7.1609 11.9012L11.1983 5.45961L12.9844 6.57911L9.04056 12.8714C8.78306 13.2823 8.6436 13.7045 8.62217 14.1381C8.60394 14.5737 8.70279 14.9866 8.91871 15.3767C9.13664 15.7637 9.47188 16.099 9.92442 16.3826C10.377 16.6662 10.8249 16.8218 11.2681 16.8493C11.7166 16.8755 12.1312 16.7845 12.5121 16.5762C12.893 16.3679 13.2122 16.0584 13.4697 15.6475L17.4136 9.35522Z" fill="black" fill-opacity="0.3"/>
<rect x="14.2856" y="5.95233" width="4.76185" height="1.19046" fill="black"/>
<rect x="14.2856" y="8.33325" width="4.76185" height="1.19046" fill="black"/>
<rect x="14.2856" y="10.7142" width="4.76185" height="1.19046" fill="black"/>
</svg>
